<svg fill="none" height="36" viewBox="0 0 211 36" width="211" xmlns="http://www.w3.org/2000/svg"><path clip-rule="evenodd" d="m10.8555.246505c-5.73199.33139-10.277605 4.877005-10.608995 10.609095-.141725 2.4514-.246505 4.9917-.246505 7.1444s.10478 4.693.246505 7.1445c.33139 5.732 4.877005 10.2776 10.609095 10.609 2.4514.1417 4.9917.2465 7.1444.2465s4.693-.1048 7.1445-.2465c5.732-.3314 10.2776-4.877 10.609-10.6091.1417-2.4514.2465-4.9917.2465-7.1444s-.1048-4.693-.2465-7.1445c-.3314-5.73199-4.877-10.277605-10.6091-10.608995-2.4514-.141725-4.9917-.246505-7.1444-.246505s-4.693.10478-7.1445.246505zm5.1445 28.753495 12-5v-11l-8-6-4 1.78876v12.04844l4-1.8372v-7l4 3v6.5l-8 3.5zm-4-6.3396-4 1.8396v-12l4-1.8686zm103.953 5.2196h3.92v-4.34l1.792-1.904 4.48 6.244h4.76l-6.58-9.128 5.236-5.656h-4.592l-5.096 5.6v-10.696h-3.92zm-59.289 0h-6.664v-19.6h6.664c6.076 0 9.8 3.976 9.8 9.8s-3.724 9.8-9.8 9.8zm-2.632-16.016v12.432h2.688c3.612 0 5.712-2.492 5.712-6.216s-2.1-6.216-5.712-6.216zm29.955 8.624c0 4.2-3.192 7.672-7.784 7.672s-7.784-3.472-7.784-7.672c0-4.172 3.192-7.672 7.784-7.672s7.784 3.5 7.784 7.672zm-11.648 0c0 2.856 1.54 4.424 3.864 4.424s3.864-1.568 3.864-4.424c0-2.828-1.54-4.424-3.864-4.424s-3.864 1.596-3.864 4.424zm21.2141 7.672c4.592 0 7.7839-3.472 7.7839-7.672 0-4.172-3.1919-7.672-7.7839-7.672s-7.784 3.5-7.784 7.672c0 4.2 3.192 7.672 7.784 7.672zm0-3.248c-2.324 0-3.864-1.568-3.864-4.424 0-2.828 1.54-4.424 3.864-4.424s3.864 1.596 3.864 4.424c0 2.856-1.54 4.424-3.864 4.424zm14.7739-10.248c.868-1.204 2.128-1.848 3.808-1.848.588 0 1.12.112 1.512.252v3.584c-.672-.308-1.344-.42-1.96-.42-2.38 0-3.724 1.792-3.724 5.04v6.608h-3.892v-14.784h3.584zm36.684 10.304c-1.288 2.044-3.612 3.192-6.496 3.192-3.332 0-7.504-2.128-7.504-7.672 0-3.892 2.632-7.672 7.476-7.672 5.096 0 7.476 3.752 7.476 7.644v1.372h-11.144c.364 2.072 1.764 3.136 3.696 3.136 1.708 0 2.744-.672 3.528-1.904zm-6.44-8.96c-1.708 0-2.996.868-3.612 2.744h7.112c-.392-1.596-1.568-2.744-3.5-2.744zm16.693 12.152c2.884 0 5.208-1.148 6.496-3.192l-2.968-1.904c-.784 1.232-1.82 1.904-3.528 1.904-1.932 0-3.332-1.064-3.696-3.136h11.144v-1.372c0-3.892-2.38-7.644-7.476-7.644-4.844 0-7.476 3.78-7.476 7.672 0 5.544 4.172 7.672 7.504 7.672zm-3.556-9.408c.616-1.876 1.904-2.744 3.612-2.744 1.932 0 3.108 1.148 3.5 2.744zm17.812-4.312c.896-.952 2.296-1.624 4.284-1.624 4.312 0 7.14 3.22 7.14 7.644s-2.828 7.7-7.14 7.7c-1.988 0-3.5-.588-4.424-1.736v6.496h-3.92v-19.824h3.528zm-.448 6.02c0 2.38 1.344 4.452 3.976 4.452s3.976-2.072 3.976-4.452-1.344-4.396-3.976-4.396-3.976 2.016-3.976 4.396zm21.165 7.7c2.884 0 5.208-1.148 6.496-3.192l-2.968-1.904c-.784 1.232-1.82 1.904-3.528 1.904-1.932 0-3.332-1.064-3.696-3.136h11.144v-1.372c0-3.892-2.38-7.644-7.476-7.644-4.844 0-7.476 3.78-7.476 7.672 0 5.544 4.172 7.672 7.504 7.672zm-3.556-9.408c.616-1.876 1.904-2.744 3.612-2.744 1.932 0 3.108 1.148 3.5 2.744zm18.009-4.088c.868-1.204 2.128-1.848 3.808-1.848.588 0 1.12.112 1.512.252v3.584c-.672-.308-1.344-.42-1.96-.42-2.38 0-3.724 1.792-3.724 5.04v6.608h-3.892v-14.784h3.584z" fill="#0f4ff4" fill-rule="evenodd"/></svg>