<svg enable-background="new 0 0 832 122" viewBox="0 0 832 122" xmlns="http://www.w3.org/2000/svg"><path d="m562.4 41.1c-8.8 0-17 3-23.6 7.8-6.6-4.8-14.8-7.8-23.8-7.8-8.8 0-17 3-23.8 7.8-6.6-4.8-14.8-7.8-23.8-7.8-8.8 0-17 3-23.6 7.8-6.6-4.8-14.8-7.8-23.8-7.8-8.8 0-17 3-23.8 7.8-6.6-4.8-14.8-7.8-23.8-7.8-8.8 0-17 3-23.6 7.8-6.6-4.8-14.8-7.8-23.8-7.8s-17 3-23.6 7.8c-6.6-4.8-14.8-7.8-23.8-7.8-8.8 0-17 3-23.8 7.8-6.6-4.8-14.8-7.8-23.8-7.8-8.8 0-17 3-23.8 7.8-6.6-4.8-14.8-7.8-23.6-7.8s-17 3-23.8 7.8c-6.6-4.8-14.8-7.8-23.8-7.8-8.8 0-17 3-23.6 7.8-6.6-4.8-14.8-7.8-23.8-7.8s-17 3-23.6 7.8c-6.6-4.8-14.8-7.8-23.8-7.8-21.4 0-39.4 18-39.4 40.2s18 40.2 40.2 40.2c8.8 0 17-3 23.8-7.8 6.6 4.8 14.8 7.8 23.6 7.8s17-3 23.8-7.8c6.6 4.8 14.8 7.8 23.6 7.8s17-3 23.8-7.8c6.6 4.8 14.8 7.8 23.8 7.8 8.8 0 17-3 23.6-7.8 6.6 4.8 14.8 7.8 23.8 7.8 8.8 0 17-3 23.8-7.8 6.6 4.8 14.8 7.8 23.8 7.8 8.8 0 17-3 23.8-7.8 6.6 4.8 14.8 7.8 23.6 7.8s17-3 23.8-7.8c6.6 4.8 14.8 7.8 23.6 7.8s17-3 23.8-7.8c6.6 4.8 14.8 7.8 23.8 7.8 8.8 0 17-3 23.8-7.8 6.6 4.8 14.8 7.8 23.6 7.8s17-3 23.8-7.8c6.6 4.8 14.8 7.8 23.8 7.8 8.8 0 17-3 23.8-7.8 6.6 4.8 14.8 7.8 23.6 7.8 22.2 0 40.2-18 40.2-40.2-.8-22.2-18.8-40.2-41-40.2z" fill="#fff"/><g fill="#231815"><path d="m19.2 86.7c0-2 .6-3.8 1.6-5.8.2-.4.6-.6 1.2-.6l6 1.2c.6.2.8.6.6 1.2-.4.8-.6 1.6-.6 2.2 0 4 6 4 8.8 4 5 0 11-1 16-2.2.6-.2 1 .2 1 .8v7.4c0 .6-.2.8-.8 1-4.2 1-9.4 1.8-14.4 1.8-3.4 0-6.8-.2-9.8-1-6.6-1.2-9.6-5.6-9.6-10zm17.6-17.6c-5 0-10.2-.4-14.8-1-.6 0-.8-.4-.8-1l.4-6.8c0-.6.4-1 1-.8 4.4.4 9.4.8 14.4.8 4 0 8.2-.2 12-.6.6 0 1 .2 1 .8l.6 6.8c0 .6-.2 1-.8 1-3.8.6-8.4.8-13 .8z"/><path d="m62.8 94.5c3.8-10.6 10.4-27.2 14-37.6.2-.6.6-.8 1.2-.6l7.6 2.2c.6.2.8.6.6 1.2-2.2 5-5 11.4-7 16.2 1.2-.6 2.6-1 4-1 3.2 0 6.2 2 6.6 7.2.2 1.4.2 2.6.2 4 .2 2 1 2.8 2 2.8s2-.6 2.8-2c1-1.6 2-5.6 2.4-10 0-.4.2-.8.6-.8h.4l7 3c.4.2.8.6.6 1.2-.8 6-2.2 10.4-4.8 13.4-2.4 2.8-6 4.4-9.4 4.4-4.4 0-8.4-2.6-9.6-8.4-.2-1-.2-2.8-.2-4.6 0-1.6-.8-2.4-1.6-2.4-1.6 0-3.8 2.2-5.6 6.4-1 2.8-1.8 5.6-2.6 8.2-.2.6-.6.8-1.2.6l-7.4-2.4c-.6 0-.8-.4-.6-1z"/><path d="m110.6 89.1c0-.2 0-.4.2-.6 3.6-5.6 6.4-11.6 8.6-18h-6c-.6 0-1-.4-1-1v-6c0-.6.4-1 1-1h7.8c.4-1.8.8-3.6 1-5.4 0-.6.4-.8 1-.8l7 .4c.6 0 .8.4.8 1-.2 1.6-.6 3.2-1 4.8h4.8c.6 0 1 .4 1 1v6.2c0 .6-.4 1-1 1h-6.8c-2.4 7.4-5.6 14.2-9.2 20.6-.2.4-.6.6-1.2.4l-6.6-2c-.2-.2-.4-.4-.4-.6zm36.4 7.4c-.2 0-.4-.2-.6-.4-1-1.4-2.2-2.4-3.4-3.6-1.6 4.2-6.2 6-10.6 6-5.2 0-10.4-2.6-10.4-8.4 0-2.8 1.4-5.4 3.6-7.4 2-1.4 4.4-2.2 7-2.2 1 0 1.8 0 2.8.2 0-2.4-.2-5 0-7.8 0-.6.4-.8 1-.8h6.4c.6 0 1 .2 1 1-.2 3.2-.2 6.8-.2 10.2 3.4 1.6 6.4 3.6 9 6 .2.2.4.4.4.6s-.2.4-.4.6l-4.8 5.2c-.4.6-.6.8-.8.8zm-14.4-9.4c-1.4 0-3.4.6-3.4 2.2 0 .4.2 1 .6 1.4.6.6 1.6.8 2.6.8 2.4 0 3.2-1.4 3.4-3.6-1.2-.6-2.2-.8-3.2-.8zm4.8-17.6c-.6 0-.8-.4-.8-1l1.4-5.6c.2-.6.4-.8 1.2-.8 4.8.4 10.6 1.6 14.4 3.8.2.2.4.4.4.8 0 .2 0 .4-.2.6l-3.6 6c-.2.4-.4.4-.6.4s-.4 0-.6-.2c-3-2.2-6.8-3.4-11.6-4z"/><path d="m163.2 86.7c0-2 .6-3.8 1.6-5.8.2-.4.6-.6 1.2-.6l6 1.2c.6.2.8.6.6 1.2-.4.8-.6 1.6-.6 2.2 0 4 6 4 8.8 4 5 0 11-1 16-2.2.6-.2 1 .2 1 .8v7.4c0 .6-.2.8-.8 1-4.2 1-9.4 1.8-14.4 1.8-3.4 0-6.8-.2-9.6-1-6.8-1.2-9.8-5.6-9.8-10zm17.6-17.6c-5 0-10.2-.4-14.8-1-.6 0-.8-.4-.8-1l.4-6.8c0-.6.4-1 1-.8 4.4.4 9.4.8 14.4.8 4 0 8.2-.2 12-.6.6 0 1 .2 1 .8l.6 6.8c0 .6-.2 1-.8 1-3.8.6-8.4.8-13 .8z"/><path d="m230.6 98.3c-4.4 0-8.2-.4-11.6-1.4-5.2-1.6-8.4-5.8-8.4-10.6 0-4.6 2.8-9.6 9.6-13.4-1.2-4.6-1.4-9.8-1.4-14.8 0-.6.2-1 1-1h7.8c.6 0 .8.4.8 1-.2 4.4-.2 8.2.4 11.4 3.6-1 7.8-2 12.2-2.8.6 0 1 0 1.2.6l2.4 7c.2.6 0 1-.6 1-6.6 1-12.8 2.4-17 4.2-5 2-6.8 4.4-6.8 6.4 0 1.4.8 2.4 2 3 1.6.8 4.2 1 7.2 1 4.8 0 10.6-.8 14.8-1.4h.2c.4 0 .8.2.8.8l-.2 7.2c0 .6-.2.8-.8 1-4.8.4-9.4.8-13.6.8z"/><path d="m264.8 89.5c0-6.2 6.2-9.6 11-12-.6-.4-1.4-.6-2.2-.6-2.2 0-4.8 1.4-7 4.2-.2.2-.2.2-.2.2l-3.8 5.2c-.2.2-.4.4-.6.4s-.4 0-.6-.2l-5.2-4c-.2-.2-.4-.4-.4-.6s.2-.4.2-.6c3.6-3.8 7-8.4 9.2-12.6h-6.8c-.6 0-1-.4-1-1v-6c0-.6.4-1 1-1h9.8c.6-1.6 1.2-3.2 1.4-4.6.2-.6.6-.8 1.2-.6l7 1.6c.6.2.8.6.6 1.2l-1 2.4h13.2c.6 0 1 .4 1 1v6c0 .6-.4 1-1 1h-16.6l-1.2 2.6c1-.2 2-.4 3-.4 2.8 0 5.6 1 7.6 3.2l8.6-3.2c.6-.2 1 0 1.2.6l2.2 6.2c.2.6 0 1-.6 1.2l-8.8 2.6c0 .6.2 1 .2 1.6 0 1.4-.2 2.6-.4 4.2-.2.6-.4.8-1 .8h-6.2c-.6 0-1-.4-.8-1 .2-1 .4-2 .4-3-1.4.6-5 2.4-5 4.2 0 .8.8 1.4 2.2 1.8 1.2.2 2.8.4 4.6.4 3.4 0 7.8-.4 11.8-1h.2c.4 0 .8.2.8.8l-.2 6.6c0 .6-.4 1-1 1-3.8.4-7.2.6-10.4.6-2.4 0-4.6-.2-6.8-.4-6.4-1-9.6-4.8-9.6-8.8z"/><path d="m326.2 85.7-1.6-7c-.2-.6.2-1 1-1 1.8.4 3.4.6 4.8.6 2.6 0 6.4-.8 6.4-4 0-2.6-3-3.4-5-3.4-3 0-7.2 1-11.2 2.4 2.2 8 4.4 16 6.2 23.4.2.6-.2 1-.6 1l-7.2 1.6c-.6.2-1 0-1.2-.6-1.4-5.8-3.8-15.4-5.6-22.4l-6 2.4c-.2 0-.4 0-.4 0-.4 0-.6-.2-.8-.6l-2.4-7c-.2-.6 0-1 .6-1.2 1.8-.6 4.2-1.4 6.8-2.4-.8-2.8-1.4-5.2-2.2-7.4-.2-.6 0-1 .6-1l7.2-1.6c.6-.2 1 0 1.2.6.8 2.2 1.4 4.6 2.2 6.8l5-1.2c-.4-1.8-1-3.8-1.8-5.8-.2-.6 0-1 .6-1.2l7.2-1.6c.6-.2 1 0 1.2.6.8 2.2 1.4 4.4 1.8 6.6h2.4c7.4 1 11 6 11 11.4 0 4.4-2.4 8.8-7.4 11.2-2 1-4.6 1.6-7.6 1.6-1.2 0-2.4 0-3.6-.2-1 .2-1.4-.2-1.6-.6z"/><path d="m365.6 96.3-2.4-6.4c-.2-.6.2-1 .8-1 5.4.2 10.2 0 13.2-1.8 2.6-1.4 4.2-3.8 4.2-6.2 0-2.8-2.2-5.2-7.4-5.2h-2c-5.2.6-10.2 2-13.8 3-.6.2-1 0-1.2-.6l-2-6.2c-.2-.6 0-1 .6-1 5-1 10.8-2.4 17.4-2.8h2.2c10.6 0 15 6 15 12.6 0 5-2.8 10.4-7.8 13-4.6 2.4-10.8 3.2-15.8 3.2-.4.2-.8 0-1-.6z"/><path d="m409.2 82.7c0-6 3.8-12 9.4-14.8-5.4.2-12.2.6-17.8.6-.6 0-1-.2-1-1l-.2-7c0-.6.2-1 1-1 10 0 27.4 0 37.8-.2.6 0 1 .2 1 .8v6.8c0 .6-.2.8-.8 1-1.4 0-2.8.2-4 .4-6 1-15.6 6.4-15.6 13 0 4.2 4.4 7.4 15 7.4.6 0 .8.2.8.8v.2l-1.2 7.4c-.2.6-.6.8-1.6.8-9.8.2-22.8-3.6-22.8-15.2z"/><path d="m452.2 86.9c-.2 0-.4 0-.6-.4l-4-5.8c-.2-.2-.2-.4-.2-.6s.2-.6.4-.8c9-5.8 15-9.8 20.2-13.4l-13.4.6c-.6 0-1-.2-1-.8v-6.6c0-.6.4-1 1-1h27.4c.6 0 1 .2 1 1v5.6c0 .4-.2.8-.6 1l-9.2 5.6h1.6c7.4 0 13.8 4.8 13.8 12.6 0 5-2.8 10.2-8.8 13-2.8 1.4-6.6 2.2-10.2 2.2s-7-.6-9.4-2.2c-2.8-1.8-4.4-4.6-4.4-7.4 0-5.4 5.2-8.2 10-8.2s9.2 2.4 9.6 8.6c2.2-1.4 4.4-3 4.4-6 0-4.4-5.6-6.4-9.4-6.4-3.4 0-7.6 1.2-11.8 4.2l-6 4.6c0 .4-.2.6-.4.6zm12.6.8c-.8 0-1.6.4-1.6 1.4 0 2 3 2.8 4.6 2.8.2-2.4-1.6-4.2-3-4.2z"/><path d="m520.6 89.9c-1.2 6-5.8 8.6-11.8 8.6s-12-3.2-12-10c0-2 .8-4.2 2.4-6 2.2-2.4 5.8-3.8 10.2-3.8 1 0 1.8 0 2.8.2 0-5.8-.4-13.4-.8-20.6 0-.6.2-1 1-1l7.6.2c.6 0 1 .4 1 1v7h12.6c.6 0 1 .2 1 1v6c0 .6-.2 1-1 1l-12.6.2v7.4c4.8 1.8 10 4.6 15 8.6.2.2.4.4.4.8 0 .2 0 .4-.2.6l-4.6 6.4c-.2.2-.4.4-.6.4s-.4 0-.6-.2c-2.6-2.6-6.2-5.4-9.8-7.8zm-10.8-4.4c-1.8 0-4.8.8-4.8 3 0 1.8 2.2 2.4 3.8 2.4 1 0 2-.2 2.6-.8 1.2-1 1.2-2.8 1.2-4.4-1 0-2 0-2.8-.2z"/><path d="m558.8 94.5c0-3.2 2.2-5.2 5.4-5.2s5.4 2 5.4 5.2-2.2 5-5.4 5-5.4-1.8-5.4-5zm1.4-9.4-.6-28.4c0-.6.2-1 1-1h7.4c.6 0 1 .4 1 1l-.6 28.4c0 .6-.4 1-1 1h-6.2c-.8 0-1-.4-1-1z"/></g><g fill="#ea5a42"><path d="m19.2 86.7c0-2 .6-3.8 1.6-5.8.2-.4.6-.6 1.2-.6l6 1.2c.6.2.8.6.6 1.2-.4.8-.6 1.6-.6 2.2 0 4 6 4 8.8 4 5 0 11-1 16-2.2.6-.2 1 .2 1 .8v7.4c0 .6-.2.8-.8 1-4.2 1-9.4 1.8-14.4 1.8-3.4 0-6.8-.2-9.8-1-6.6-1.2-9.6-5.6-9.6-10zm17.6-17.6c-5 0-10.2-.4-14.8-1-.6 0-.8-.4-.8-1l.4-6.8c0-.6.4-1 1-.8 4.4.4 9.4.8 14.4.8 4 0 8.2-.2 12-.6.6 0 1 .2 1 .8l.6 6.8c0 .6-.2 1-.8 1-3.8.6-8.4.8-13 .8z"/><path d="m62.8 94.5c3.8-10.6 10.4-27.2 14-37.6.2-.6.6-.8 1.2-.6l7.6 2.2c.6.2.8.6.6 1.2-2.2 5-5 11.4-7 16.2 1.2-.6 2.6-1 4-1 3.2 0 6.2 2 6.6 7.2.2 1.4.2 2.6.2 4 .2 2 1 2.8 2 2.8s2-.6 2.8-2c1-1.6 2-5.6 2.4-10 0-.4.2-.8.6-.8h.4l7 3c.4.2.8.6.6 1.2-.8 6-2.2 10.4-4.8 13.4-2.4 2.8-6 4.4-9.4 4.4-4.4 0-8.4-2.6-9.6-8.4-.2-1-.2-2.8-.2-4.6 0-1.6-.8-2.4-1.6-2.4-1.6 0-3.8 2.2-5.6 6.4-1 2.8-1.8 5.6-2.6 8.2-.2.6-.6.8-1.2.6l-7.4-2.4c-.6 0-.8-.4-.6-1z"/><path d="m110.6 89.1c0-.2 0-.4.2-.6 3.6-5.6 6.4-11.6 8.6-18h-6c-.6 0-1-.4-1-1v-6c0-.6.4-1 1-1h7.8c.4-1.8.8-3.6 1-5.4 0-.6.4-.8 1-.8l7 .4c.6 0 .8.4.8 1-.2 1.6-.6 3.2-1 4.8h4.8c.6 0 1 .4 1 1v6.2c0 .6-.4 1-1 1h-6.8c-2.4 7.4-5.6 14.2-9.2 20.6-.2.4-.6.6-1.2.4l-6.6-2c-.2-.2-.4-.4-.4-.6zm36.4 7.4c-.2 0-.4-.2-.6-.4-1-1.4-2.2-2.4-3.4-3.6-1.6 4.2-6.2 6-10.6 6-5.2 0-10.4-2.6-10.4-8.4 0-2.8 1.4-5.4 3.6-7.4 2-1.4 4.4-2.2 7-2.2 1 0 1.8 0 2.8.2 0-2.4-.2-5 0-7.8 0-.6.4-.8 1-.8h6.4c.6 0 1 .2 1 1-.2 3.2-.2 6.8-.2 10.2 3.4 1.6 6.4 3.6 9 6 .2.2.4.4.4.6s-.2.4-.4.6l-4.8 5.2c-.4.6-.6.8-.8.8zm-14.4-9.4c-1.4 0-3.4.6-3.4 2.2 0 .4.2 1 .6 1.4.6.6 1.6.8 2.6.8 2.4 0 3.2-1.4 3.4-3.6-1.2-.6-2.2-.8-3.2-.8zm4.8-17.6c-.6 0-.8-.4-.8-1l1.4-5.6c.2-.6.4-.8 1.2-.8 4.8.4 10.6 1.6 14.4 3.8.2.2.4.4.4.8 0 .2 0 .4-.2.6l-3.6 6c-.2.4-.4.4-.6.4s-.4 0-.6-.2c-3-2.2-6.8-3.4-11.6-4z"/><path d="m163.2 86.7c0-2 .6-3.8 1.6-5.8.2-.4.6-.6 1.2-.6l6 1.2c.6.2.8.6.6 1.2-.4.8-.6 1.6-.6 2.2 0 4 6 4 8.8 4 5 0 11-1 16-2.2.6-.2 1 .2 1 .8v7.4c0 .6-.2.8-.8 1-4.2 1-9.4 1.8-14.4 1.8-3.4 0-6.8-.2-9.6-1-6.8-1.2-9.8-5.6-9.8-10zm17.6-17.6c-5 0-10.2-.4-14.8-1-.6 0-.8-.4-.8-1l.4-6.8c0-.6.4-1 1-.8 4.4.4 9.4.8 14.4.8 4 0 8.2-.2 12-.6.6 0 1 .2 1 .8l.6 6.8c0 .6-.2 1-.8 1-3.8.6-8.4.8-13 .8z"/><path d="m230.6 98.3c-4.4 0-8.2-.4-11.6-1.4-5.2-1.6-8.4-5.8-8.4-10.6 0-4.6 2.8-9.6 9.6-13.4-1.2-4.6-1.4-9.8-1.4-14.8 0-.6.2-1 1-1h7.8c.6 0 .8.4.8 1-.2 4.4-.2 8.2.4 11.4 3.6-1 7.8-2 12.2-2.8.6 0 1 0 1.2.6l2.4 7c.2.6 0 1-.6 1-6.6 1-12.8 2.4-17 4.2-5 2-6.8 4.4-6.8 6.4 0 1.4.8 2.4 2 3 1.6.8 4.2 1 7.2 1 4.8 0 10.6-.8 14.8-1.4h.2c.4 0 .8.2.8.8l-.2 7.2c0 .6-.2.8-.8 1-4.8.4-9.4.8-13.6.8z"/><path d="m264.8 89.5c0-6.2 6.2-9.6 11-12-.6-.4-1.4-.6-2.2-.6-2.2 0-4.8 1.4-7 4.2-.2.2-.2.2-.2.2l-3.8 5.2c-.2.2-.4.4-.6.4s-.4 0-.6-.2l-5.2-4c-.2-.2-.4-.4-.4-.6s.2-.4.2-.6c3.6-3.8 7-8.4 9.2-12.6h-6.8c-.6 0-1-.4-1-1v-6c0-.6.4-1 1-1h9.8c.6-1.6 1.2-3.2 1.4-4.6.2-.6.6-.8 1.2-.6l7 1.6c.6.2.8.6.6 1.2l-1 2.4h13.2c.6 0 1 .4 1 1v6c0 .6-.4 1-1 1h-16.6l-1.2 2.6c1-.2 2-.4 3-.4 2.8 0 5.6 1 7.6 3.2l8.6-3.2c.6-.2 1 0 1.2.6l2.2 6.2c.2.6 0 1-.6 1.2l-8.8 2.6c0 .6.2 1 .2 1.6 0 1.4-.2 2.6-.4 4.2-.2.6-.4.8-1 .8h-6.2c-.6 0-1-.4-.8-1 .2-1 .4-2 .4-3-1.4.6-5 2.4-5 4.2 0 .8.8 1.4 2.2 1.8 1.2.2 2.8.4 4.6.4 3.4 0 7.8-.4 11.8-1h.2c.4 0 .8.2.8.8l-.2 6.6c0 .6-.4 1-1 1-3.8.4-7.2.6-10.4.6-2.4 0-4.6-.2-6.8-.4-6.4-1-9.6-4.8-9.6-8.8z"/><path d="m326.2 85.7-1.6-7c-.2-.6.2-1 1-1 1.8.4 3.4.6 4.8.6 2.6 0 6.4-.8 6.4-4 0-2.6-3-3.4-5-3.4-3 0-7.2 1-11.2 2.4 2.2 8 4.4 16 6.2 23.4.2.6-.2 1-.6 1l-7.2 1.6c-.6.2-1 0-1.2-.6-1.4-5.8-3.8-15.4-5.6-22.4l-6 2.4c-.2 0-.4 0-.4 0-.4 0-.6-.2-.8-.6l-2.4-7c-.2-.6 0-1 .6-1.2 1.8-.6 4.2-1.4 6.8-2.4-.8-2.8-1.4-5.2-2.2-7.4-.2-.6 0-1 .6-1l7.2-1.6c.6-.2 1 0 1.2.6.8 2.2 1.4 4.6 2.2 6.8l5-1.2c-.4-1.8-1-3.8-1.8-5.8-.2-.6 0-1 .6-1.2l7.2-1.6c.6-.2 1 0 1.2.6.8 2.2 1.4 4.4 1.8 6.6h2.4c7.4 1 11 6 11 11.4 0 4.4-2.4 8.8-7.4 11.2-2 1-4.6 1.6-7.6 1.6-1.2 0-2.4 0-3.6-.2-1 .2-1.4-.2-1.6-.6z"/><path d="m365.6 96.3-2.4-6.4c-.2-.6.2-1 .8-1 5.4.2 10.2 0 13.2-1.8 2.6-1.4 4.2-3.8 4.2-6.2 0-2.8-2.2-5.2-7.4-5.2h-2c-5.2.6-10.2 2-13.8 3-.6.2-1 0-1.2-.6l-2-6.2c-.2-.6 0-1 .6-1 5-1 10.8-2.4 17.4-2.8h2.2c10.6 0 15 6 15 12.6 0 5-2.8 10.4-7.8 13-4.6 2.4-10.8 3.2-15.8 3.2-.4.2-.8 0-1-.6z"/><path d="m409.2 82.7c0-6 3.8-12 9.4-14.8-5.4.2-12.2.6-17.8.6-.6 0-1-.2-1-1l-.2-7c0-.6.2-1 1-1 10 0 27.4 0 37.8-.2.6 0 1 .2 1 .8v6.8c0 .6-.2.8-.8 1-1.4 0-2.8.2-4 .4-6 1-15.6 6.4-15.6 13 0 4.2 4.4 7.4 15 7.4.6 0 .8.2.8.8v.2l-1.2 7.4c-.2.6-.6.8-1.6.8-9.8.2-22.8-3.6-22.8-15.2z"/><path d="m452.2 86.9c-.2 0-.4 0-.6-.4l-4-5.8c-.2-.2-.2-.4-.2-.6s.2-.6.4-.8c9-5.8 15-9.8 20.2-13.4l-13.4.6c-.6 0-1-.2-1-.8v-6.6c0-.6.4-1 1-1h27.4c.6 0 1 .2 1 1v5.6c0 .4-.2.8-.6 1l-9.2 5.6h1.6c7.4 0 13.8 4.8 13.8 12.6 0 5-2.8 10.2-8.8 13-2.8 1.4-6.6 2.2-10.2 2.2s-7-.6-9.4-2.2c-2.8-1.8-4.4-4.6-4.4-7.4 0-5.4 5.2-8.2 10-8.2s9.2 2.4 9.6 8.6c2.2-1.4 4.4-3 4.4-6 0-4.4-5.6-6.4-9.4-6.4-3.4 0-7.6 1.2-11.8 4.2l-6 4.6c0 .4-.2.6-.4.6zm12.6.8c-.8 0-1.6.4-1.6 1.4 0 2 3 2.8 4.6 2.8.2-2.4-1.6-4.2-3-4.2z"/><path d="m520.6 89.9c-1.2 6-5.8 8.6-11.8 8.6s-12-3.2-12-10c0-2 .8-4.2 2.4-6 2.2-2.4 5.8-3.8 10.2-3.8 1 0 1.8 0 2.8.2 0-5.8-.4-13.4-.8-20.6 0-.6.2-1 1-1l7.6.2c.6 0 1 .4 1 1v7h12.6c.6 0 1 .2 1 1v6c0 .6-.2 1-1 1l-12.6.2v7.4c4.8 1.8 10 4.6 15 8.6.2.2.4.4.4.8 0 .2 0 .4-.2.6l-4.6 6.4c-.2.2-.4.4-.6.4s-.4 0-.6-.2c-2.6-2.6-6.2-5.4-9.8-7.8zm-10.8-4.4c-1.8 0-4.8.8-4.8 3 0 1.8 2.2 2.4 3.8 2.4 1 0 2-.2 2.6-.8 1.2-1 1.2-2.8 1.2-4.4-1 0-2 0-2.8-.2z"/><path d="m558.8 94.5c0-3.2 2.2-5.2 5.4-5.2s5.4 2 5.4 5.2-2.2 5-5.4 5-5.4-1.8-5.4-5zm1.4-9.4-.6-28.4c0-.6.2-1 1-1h7.4c.6 0 1 .4 1 1l-.6 28.4c0 .6-.4 1-1 1h-6.2c-.8 0-1-.4-1-1z"/></g><path d="m807.2 40.1-176.4-38.8c-16.4-3.6-33 6.8-36.6 23.4l-1.4 6c-3.6 16.2 6.4 32.2 22.4 36.2l-7.2 16.4c7.6 0 21.4-6.2 31.2-11l153.2 33.8c16.4 3.6 33-6.8 36.6-23.4l1.4-6c3.8-16.6-6.8-33-23.2-36.6z" fill="#7e3967"/><path d="m614 32.7 1-4.6c0-.2.2-.4.6-.4l25 5.6c.2 0 .4.2.4.6l-1 4.6c0 .2-.2.4-.6.4l-25-5.6c-.4 0-.4-.2-.4-.6z" fill="#231815"/><path d="m662.2 28.7-.8 4c0 .2-.2.4-.6.4l-3.2-.8-.4 1.4 3.4.8c.2 0 .4.2.4.6l-.4 1.6c-1.6 7.6-4.6 13.6-11 15.8-.2 0-.2 0-.2 0-.2 0-.2 0-.2-.2l-1.8-4-.8 3.4c0 .2-.2.4-.6.4l-3.8-.8c-.2 0-.4-.2-.4-.6l2.6-11.6c-.2.2-.4.4-.6.4s-.2 0-.4 0-.2-.2-.2-.4l-.2-5.6c0-.2 0-.4.2-.6 2.4-1.8 4.6-5 5.8-8.2.2-.2.4-.4.6-.2l3.6 1.8h.2c0-.2.2-.2.4-.2l8.2 1.8c.2.4.2.6.2.8zm-14.8 19c1.8-.4 3.4-1.4 4.6-2.6-.2-.6-.6-1.2-1-1.8-.2.2-.4.4-.6.6s-.2.2-.4.2-.2-.2-.2-.2l-1-3.6-1.6 7.6c-.2 0 0-.2.2-.2zm5.8-16.4-.8-.2c-.2 0-.4-.2-.4-.6l.6-2.6c-.6 1.2-1.4 2.6-2 3.8l-1.6 7c1.8-1.6 3.4-4.4 4.2-7.4zm.6 8.4c.4.4.8 1 1 1.6.4-1 .8-2 1-3.2l-1-.2c-.4.6-.8 1.2-1 1.8zm17.8-9.6-4.6 21c-1 4.4-2.6 5-7.8 4-.2 0-.4-.2-.4-.4l-.6-4.4v-.2c0-.2.2-.2.6-.2 3.4 1 3.8.6 4-.6l4.4-20c0-.2.2-.4.6-.4l3.6.8c.2-.2.4 0 .2.4zm-5.8.8-3.8 17c0 .2-.2.4-.6.4l-2.4-.6c-.2 0-.4-.2-.4-.6l3.8-17c0-.2.2-.4.6-.4l2.4.6c.4 0 .6.2.4.6z" fill="#231815"/><path d="m676.2 52.3c.8-3.8 5-5 8.2-5.6-.4-.4-.8-.6-1.2-.6-1.4-.2-3.2.2-4.6 1.6 0 0-.2 0-.2.2l-3 2.6c-.2.2-.2.2-.4.2s-.2-.2-.4-.2l-2.6-3c-.2-.2-.2-.2-.2-.4s.2-.2.2-.4c2.6-1.8 5.2-4 7.2-6.4l-4-.8c-.4 0-.4-.4-.4-.6l.8-3.6c0-.4.4-.4.6-.4l5.8 1.2c.6-1 1-1.8 1.4-2.4.2-.2.4-.4.8-.2l4 2c.4.2.4.4.2.8l-.8 1.2 7.8 1.8c.4 0 .4.4.4.6l-.8 3.6c0 .4-.4.4-.6.4l-9.8-2.2-1 1.4c.6 0 1.2 0 1.8.2 1.6.4 3.2 1.4 4.2 3l5.6-.8c.4 0 .6.2.6.4l.6 4c0 .4-.2.6-.4.6l-5.6.4c0 .4 0 .6-.2 1-.2.8-.4 1.6-.8 2.4-.2.4-.4.4-.6.4l-3.8-.8c-.4 0-.6-.4-.4-.8.2-.6.4-1.2.6-1.8-1 .2-3.4.8-3.6 1.8 0 .4.2 1 1 1.4.6.4 1.6.6 2.8.8 2 .4 4.8.8 7.2 1h.2c.2 0 .4.2.4.6l-1 3.8c0 .4-.4.4-.6.4-2.4-.2-4.4-.6-6.2-1-1.4-.2-2.8-.8-4-1.2-4.2-1.6-5.6-4.2-5.2-6.6z" fill="#231815"/><path d="m702 56.1c.2-1.2.8-2.2 1.6-3.2.2-.2.4-.2.8-.2l3.4 1.6c.4.2.4.4.2.8-.4.4-.6.8-.6 1.2-.6 2.4 3 3.2 4.6 3.6 3 .6 6.8.8 9.8.8.4 0 .6.2.6.6l-1 4.4c0 .4-.2.4-.6.4-2.8 0-6-.2-9-1-2-.4-4-1-5.6-1.8-3.6-1.6-4.8-4.4-4.2-7.2zm12.8-8.2c-3-.6-6-1.6-8.8-2.4-.4 0-.4-.4-.4-.8l1.2-4c.2-.4.4-.4.6-.4 2.4.8 5.4 1.6 8.2 2.2 2 .4 4 .8 6 1-.2-.4-.4-1-.6-1.4 0-.2 0-.2 0-.4s.2-.2.4-.2l1.6-.2c.4 0 .6 0 .8.4.8 1.4 1.4 2.8 1.6 4.2 0 .4-.2.6-.4.6l-1.6.2-.2 1.6c0 .4-.2.4-.6.4-2.4.4-5.2-.2-7.8-.8zm12-1.4c-.2 0-.4-.2-.4-.4-.2-1.2-.8-2.8-1.4-4 0-.2-.2-.2 0-.4 0-.2.2-.2.4-.2l1.6-.2c.4 0 .6 0 .6.4.6 1.2 1.2 2.8 1.6 4.2 0 .4 0 .6-.4.6l-1.6.2c0-.2-.2-.2-.4-.2z" fill="#231815"/><path d="m728.8 60.1 1.8.6c.2 0 .4.2.4.6-.4 2-1.2 5-2.2 7.4-.2.2-.4.4-.6.2l-1.8-.8c-.2-.2-.2-.4-.2-.6 1-2.2 1.8-4.8 2.2-6.8-.2-.6 0-.6.4-.6zm6.8-16.8 3 1.8c.2.2.4.4.2.6-1 1.4-2.4 3.2-3.8 4.6.2.2.4.6.4 1 1.2-1.2 2.2-2.4 3-3.4.2-.2.4-.2.6 0l2.6 2.2c.2.2.2.4 0 .6-1.8 2-4.2 4.2-6.2 5.8l1.8.4v-1.2c0-.2 0-.4.4-.4l1.6-.2c.2 0 .4.2.4.4.2 2 .2 4.2.2 6 0 .2-.2.4-.4.4l-1.8.2c-.4 0-.4-.2-.4-.4v-.8h-1l-2.4 10.6c0 .2-.2.4-.6.4l-3.6-.8c-.2 0-.4-.2-.4-.6l2.2-10.2c-1-.2-2-.4-3.2-.6-.4 0-.4-.2-.4-.6l.4-3.6c0-.4.4-.4.8-.2s.8.2 1.2.2l1.2-1c-.6-1.4-1.4-3-2.2-4.4-.2-.2-.2-.4 0-.6l2.4-3c.2-.2.2-.2.4-.2 0 0 .2 0 .2.2h.6c.8-1 1.6-2.2 2-3.2.2-.2.4-.2.8 0zm2 26.6h-1.6c-.4 0-.4-.2-.4-.6.4-1.8 1-4.4 1-6.4 0-.2.2-.4.4-.4h1.4c.2 0 .4.2.4.4 0 1.8-.4 4.6-.8 6.6 0 .4-.2.4-.4.4zm16.8-6.8-2.4 11.2c0 .2-.2.4-.6.4l-12.8-2.8c-.2 0-.4-.2-.4-.6l2.4-11.2c0-.2.2-.4.6-.4l12.8 2.8c.2 0 .4.2.4.6zm-11-17 13.8 3c.2 0 .4.2.4.6-.2 1.2-1 4.6-1.6 6.4-1.4 5-2.8 5.6-7.6 4.4-.2 0-.4-.2-.4-.4l-.6-3.4c-1.2 1.6-2.8 2.6-4.6 3-.2 0-.4 0-.6-.2l-2-4v-.2c0-.2.2-.2.4-.4 2.4-.6 3.6-2 4.2-3.8l-2.6-.6c-.2 0-.4-.2-.4-.6l.8-3.6c.4 0 .6-.2.8-.2zm4.4 23.2.8-3.4-3.8-.8-.8 3.4zm.4-13.2c2.2.6 2.8.2 3.2-1.2.2-.8.4-2 .4-2l-2-.4c-.2 1.2-.8 2.4-1.6 3.6z" fill="#231815"/><path d="m785.4 63.3-2.8 4.4c-.2.2-.4.4-.6.2-1-.8-2.2-1.6-3.2-2.8l-3.2 14.8c0 .2-.2.4-.6.4l-4.4-1c-.2 0-.4-.2-.4-.6l3.4-15.2c0-.2.2-.4.6-.4l3.8.8c-2.2-2.4-4.2-5.2-5.2-7.2-1.8 1.6-4.6 3.2-7.6 4.4l3.6.8c.2 0 .4.2.4.6l-.4 2c-1.4 6.2-4.4 10.8-9.4 12.2-.2 0-.4 0-.6-.2l-2.8-4.4s0-.2 0-.4.2-.2.4-.2c4.2-1 6-2.8 7.2-8.4l.2-1.4c-1.4.6-3 1-4.4 1.2-.4 0-.6-.2-.6-.4l-.8-5.2c0-.2 0-.4.4-.4 4.8-.6 8.8-2.6 12.2-5.2.2-.2.4-.2.6-.2l4.6 1c.2 0 .4.2.4.4 2 3.8 5.4 7.4 9 9.8.2.2.4.4.2.6z" fill="#231815"/><path d="m793.6 81.3c.4-1.8 2-2.8 4-2.4s3 1.8 2.6 3.8c-.4 1.8-2 2.6-3.8 2.4-2.2-.4-3.2-2-2.8-3.8zm2-5.4 3.4-17c0-.4.2-.4.6-.4l4.4 1c.4 0 .4.4.4.6l-4 16.8c0 .4-.4.4-.8.4l-3.6-.8c-.2 0-.4-.2-.4-.6z" fill="#231815"/><path d="m614 32.7 1-4.6c0-.2.2-.4.6-.4l25 5.6c.2 0 .4.2.4.6l-1 4.6c0 .2-.2.4-.6.4l-25-5.6c-.4 0-.4-.2-.4-.6z" fill="#fff"/><path d="m662.2 28.7-.8 4c0 .2-.2.4-.6.4l-3.2-.8-.4 1.4 3.4.8c.2 0 .4.2.4.6l-.4 1.6c-1.6 7.6-4.6 13.6-11 15.8-.2 0-.2 0-.2 0-.2 0-.2 0-.2-.2l-1.8-4-.8 3.4c0 .2-.2.4-.6.4l-3.8-.8c-.2 0-.4-.2-.4-.6l2.6-11.6c-.2.2-.4.4-.6.4s-.2 0-.4 0-.2-.2-.2-.4l-.2-5.6c0-.2 0-.4.2-.6 2.4-1.8 4.6-5 5.8-8.2.2-.2.4-.4.6-.2l3.6 1.8h.2c0-.2.2-.2.4-.2l8.2 1.8c.2.4.2.6.2.8zm-14.8 19c1.8-.4 3.4-1.4 4.6-2.6-.2-.6-.6-1.2-1-1.8-.2.2-.4.4-.6.6s-.2.2-.4.2-.2-.2-.2-.2l-1-3.6-1.6 7.6c-.2 0 0-.2.2-.2zm5.8-16.4-.8-.2c-.2 0-.4-.2-.4-.6l.6-2.6c-.6 1.2-1.4 2.6-2 3.8l-1.6 7c1.8-1.6 3.4-4.4 4.2-7.4zm.6 8.4c.4.4.8 1 1 1.6.4-1 .8-2 1-3.2l-1-.2c-.4.6-.8 1.2-1 1.8zm17.8-9.6-4.6 21c-1 4.4-2.6 5-7.8 4-.2 0-.4-.2-.4-.4l-.6-4.4v-.2c0-.2.2-.2.6-.2 3.4 1 3.8.6 4-.6l4.4-20c0-.2.2-.4.6-.4l3.6.8c.2-.2.4 0 .2.4zm-5.8.8-3.8 17c0 .2-.2.4-.6.4l-2.4-.6c-.2 0-.4-.2-.4-.6l3.8-17c0-.2.2-.4.6-.4l2.4.6c.4 0 .6.2.4.6z" fill="#fff"/><path d="m676.2 52.3c.8-3.8 5-5 8.2-5.6-.4-.4-.8-.6-1.2-.6-1.4-.2-3.2.2-4.6 1.6 0 0-.2 0-.2.2l-3 2.6c-.2.2-.2.2-.4.2s-.2-.2-.4-.2l-2.6-3c-.2-.2-.2-.2-.2-.4s.2-.2.2-.4c2.6-1.8 5.2-4 7.2-6.4l-4-.8c-.4 0-.4-.4-.4-.6l.8-3.6c0-.4.4-.4.6-.4l5.8 1.2c.6-1 1-1.8 1.4-2.4.2-.2.4-.4.8-.2l4 2c.4.2.4.4.2.8l-.8 1.2 7.8 1.8c.4 0 .4.4.4.6l-.8 3.6c0 .4-.4.4-.6.4l-9.8-2.2-1 1.4c.6 0 1.2 0 1.8.2 1.6.4 3.2 1.4 4.2 3l5.6-.8c.4 0 .6.2.6.4l.6 4c0 .4-.2.6-.4.6l-5.6.4c0 .4 0 .6-.2 1-.2.8-.4 1.6-.8 2.4-.2.4-.4.4-.6.4l-3.8-.8c-.4 0-.6-.4-.4-.8.2-.6.4-1.2.6-1.8-1 .2-3.4.8-3.6 1.8 0 .4.2 1 1 1.4.6.4 1.6.6 2.8.8 2 .4 4.8.8 7.2 1h.2c.2 0 .4.2.4.6l-1 3.8c0 .4-.4.4-.6.4-2.4-.2-4.4-.6-6.2-1-1.4-.2-2.8-.8-4-1.2-4.2-1.6-5.6-4.2-5.2-6.6z" fill="#fff"/><path d="m702 56.1c.2-1.2.8-2.2 1.6-3.2.2-.2.4-.2.8-.2l3.4 1.6c.4.2.4.4.2.8-.4.4-.6.8-.6 1.2-.6 2.4 3 3.2 4.6 3.6 3 .6 6.8.8 9.8.8.4 0 .6.2.6.6l-1 4.4c0 .4-.2.4-.6.4-2.8 0-6-.2-9-1-2-.4-4-1-5.6-1.8-3.6-1.6-4.8-4.4-4.2-7.2zm12.8-8.2c-3-.6-6-1.6-8.8-2.4-.4 0-.4-.4-.4-.8l1.2-4c.2-.4.4-.4.6-.4 2.4.8 5.4 1.6 8.2 2.2 2 .4 4 .8 6 1-.2-.4-.4-1-.6-1.4 0-.2 0-.2 0-.4s.2-.2.4-.2l1.6-.2c.4 0 .6 0 .8.4.8 1.4 1.4 2.8 1.6 4.2 0 .4-.2.6-.4.6l-1.6.2-.2 1.6c0 .4-.2.4-.6.4-2.4.4-5.2-.2-7.8-.8zm12-1.4c-.2 0-.4-.2-.4-.4-.2-1.2-.8-2.8-1.4-4 0-.2-.2-.2 0-.4 0-.2.2-.2.4-.2l1.6-.2c.4 0 .6 0 .6.4.6 1.2 1.2 2.8 1.6 4.2 0 .4 0 .6-.4.6l-1.6.2c0-.2-.2-.2-.4-.2z" fill="#fff"/><path d="m728.8 60.1 1.8.6c.2 0 .4.2.4.6-.4 2-1.2 5-2.2 7.4-.2.2-.4.4-.6.2l-1.8-.8c-.2-.2-.2-.4-.2-.6 1-2.2 1.8-4.8 2.2-6.8-.2-.6 0-.6.4-.6zm6.8-16.8 3 1.8c.2.2.4.4.2.6-1 1.4-2.4 3.2-3.8 4.6.2.2.4.6.4 1 1.2-1.2 2.2-2.4 3-3.4.2-.2.4-.2.6 0l2.6 2.2c.2.2.2.4 0 .6-1.8 2-4.2 4.2-6.2 5.8l1.8.4v-1.2c0-.2 0-.4.4-.4l1.6-.2c.2 0 .4.2.4.4.2 2 .2 4.2.2 6 0 .2-.2.4-.4.4l-1.8.2c-.4 0-.4-.2-.4-.4v-.8h-1l-2.4 10.6c0 .2-.2.4-.6.4l-3.6-.8c-.2 0-.4-.2-.4-.6l2.2-10.2c-1-.2-2-.4-3.2-.6-.4 0-.4-.2-.4-.6l.4-3.6c0-.4.4-.4.8-.2s.8.2 1.2.2l1.2-1c-.6-1.4-1.4-3-2.2-4.4-.2-.2-.2-.4 0-.6l2.4-3c.2-.2.2-.2.4-.2 0 0 .2 0 .2.2h.6c.8-1 1.6-2.2 2-3.2.2-.2.4-.2.8 0zm2 26.6h-1.6c-.4 0-.4-.2-.4-.6.4-1.8 1-4.4 1-6.4 0-.2.2-.4.4-.4h1.4c.2 0 .4.2.4.4 0 1.8-.4 4.6-.8 6.6 0 .4-.2.4-.4.4zm16.8-6.8-2.4 11.2c0 .2-.2.4-.6.4l-12.8-2.8c-.2 0-.4-.2-.4-.6l2.4-11.2c0-.2.2-.4.6-.4l12.8 2.8c.2 0 .4.2.4.6zm-11-17 13.8 3c.2 0 .4.2.4.6-.2 1.2-1 4.6-1.6 6.4-1.4 5-2.8 5.6-7.6 4.4-.2 0-.4-.2-.4-.4l-.6-3.4c-1.2 1.6-2.8 2.6-4.6 3-.2 0-.4 0-.6-.2l-2-4v-.2c0-.2.2-.2.4-.4 2.4-.6 3.6-2 4.2-3.8l-2.6-.6c-.2 0-.4-.2-.4-.6l.8-3.6c.4 0 .6-.2.8-.2zm4.4 23.2.8-3.4-3.8-.8-.8 3.4zm.4-13.2c2.2.6 2.8.2 3.2-1.2.2-.8.4-2 .4-2l-2-.4c-.2 1.2-.8 2.4-1.6 3.6z" fill="#fff"/><path d="m785.4 63.3-2.8 4.4c-.2.2-.4.4-.6.2-1-.8-2.2-1.6-3.2-2.8l-3.2 14.8c0 .2-.2.4-.6.4l-4.4-1c-.2 0-.4-.2-.4-.6l3.4-15.2c0-.2.2-.4.6-.4l3.8.8c-2.2-2.4-4.2-5.2-5.2-7.2-1.8 1.6-4.6 3.2-7.6 4.4l3.6.8c.2 0 .4.2.4.6l-.4 2c-1.4 6.2-4.4 10.8-9.4 12.2-.2 0-.4 0-.6-.2l-2.8-4.4s0-.2 0-.4.2-.2.4-.2c4.2-1 6-2.8 7.2-8.4l.2-1.4c-1.4.6-3 1-4.4 1.2-.4 0-.6-.2-.6-.4l-.8-5.2c0-.2 0-.4.4-.4 4.8-.6 8.8-2.6 12.2-5.2.2-.2.4-.2.6-.2l4.6 1c.2 0 .4.2.4.4 2 3.8 5.4 7.4 9 9.8.2.2.4.4.2.6z" fill="#fff"/><path d="m793.6 81.3c.4-1.8 2-2.8 4-2.4s3 1.8 2.6 3.8c-.4 1.8-2 2.6-3.8 2.4-2.2-.4-3.2-2-2.8-3.8zm2-5.4 3.4-17c0-.4.2-.4.6-.4l4.4 1c.4 0 .4.4.4.6l-4 16.8c0 .4-.4.4-.8.4l-3.6-.8c-.2 0-.4-.2-.4-.6z" fill="#fff"/></svg>