<svg enable-background="new 0 0 648 94" viewBox="0 0 648 94" xmlns="http://www.w3.org/2000/svg"><g fill="#231815"><path d="m51.2 37.8h-21.2v-14.2c0-4.2-.2-6.8-.6-7.8s-1.4-1.6-3-1.6c-1.8 0-2.8.6-3.4 1.8-.4 1.2-.8 4-.8 8.2v38c0 4 .2 6.6.8 7.8.4 1.2 1.6 1.8 3.2 1.8s2.6-.6 3.2-1.8c.4-1.2.8-4 .8-8.6v-10.2h21.2v3.2c0 8.4-.6 14.4-1.8 18s-3.8 6.6-8 9.4c-4 2.6-9.2 4-15.2 4s-11.4-1.2-15.4-3.4-6.8-5.4-8-9.4-2-10-2-18v-24c0-6 .2-10.4.6-13.2s1.6-5.8 3.6-8.6 4.8-4.8 8.4-6.4 7.6-2.4 12.2-2.4c6.2 0 11.4 1.2 15.6 3.6s6.8 5.4 8 9 2 9.2 2 16.8v8z"/><path d="m104.4 40.6v16.4c0 6-.4 10.4-1 13.2s-2 5.4-4 7.8-4.6 4.2-7.6 5.4-6.6 1.8-10.8 1.8c-4.6 0-8.4-.4-11.4-1.6s-5.6-2.4-7.2-4.4c-1.8-2-3-4.4-3.8-7.2s-1.2-7.2-1.2-12.8v-17.2c0-6.2.6-11.2 2-14.6s3.8-6.4 7.2-8.4c3.6-2.2 8-3.2 13.4-3.2 4.6 0 8.6.6 11.8 2s5.8 3.2 7.6 5.4 3 4.4 3.6 6.8 1.4 5.8 1.4 10.6zm-20.4-5.2c0-3.4-.2-5.6-.6-6.4s-1.2-1.4-2.4-1.4-2 .4-2.4 1.4-.6 3-.6 6.4v30.4c0 3.2.2 5.2.6 6.2s1.2 1.4 2.4 1.4 2-.4 2.4-1.4c.4-.8.6-2.8.6-5.6z"/><path d="m157.8 2.2v81.8h-20.6v-4.8c-2 2-4 3.6-6.2 4.6s-4.4 1.6-6.8 1.6c-3.2 0-6-.8-8.2-2.4s-3.8-3.6-4.4-5.8-1-5.8-1-10.8v-31.6c0-5.2.4-8.8 1-11s2.2-4 4.6-5.8c2.4-1.6 5.2-2.4 8.4-2.4 2.6 0 4.8.4 7 1.4s4 2.2 5.8 4.2v-19h20.4zm-20.6 31.6c0-2.4-.2-4.2-.6-5s-1.2-1.2-2.4-1.2-2 .4-2.4 1.2-.6 2.4-.6 5v32.8c0 2.8.2 4.6.6 5.4s1.2 1.4 2.4 1.4c1.4 0 2.2-.4 2.6-1.4s.6-3.4.6-7z"/><path d="m211.4 51.8h-26.6v14.6c0 3 .2 5 .6 5.8s1.2 1.4 2.6 1.4c1.6 0 2.6-.6 3.2-1.8s.8-3.4.8-6.8v-8.8h19.4v4.8c0 4.2-.2 7.4-.8 9.6s-1.8 4.6-3.6 7.2c-2 2.6-4.4 4.4-7.4 5.6s-6.6 2-11.2 2-8.2-.6-11.4-1.8c-3.4-1.2-5.8-3-7.8-5.2s-3.2-4.6-3.8-7.2-1-6.4-1-11.4v-19.6c0-5.8.8-10.4 2.4-13.8s4.2-6 7.8-7.8 7.8-2.6 12.4-2.6c5.8 0 10.4 1 14.2 3.2s6.4 5 7.8 8.6c1.6 3.6 2.2 8.6 2.2 15.2.2-.2.2 8.8.2 8.8zm-20.6-11v-5c0-3.4-.2-5.8-.6-6.8s-1.2-1.6-2.2-1.6c-1.4 0-2.4.4-2.6 1.2-.4.8-.4 3.2-.4 7v5c-.2.2 5.8.2 5.8.2z"/><path d="m238.4 17-.8 8.8c3-6.4 7.2-9.6 12.8-10v23.6c-3.8 0-6.4.4-8.2 1.6s-2.8 2.4-3.2 4.2-.6 6-.6 12.4v26.6h-20.4v-67.2z"/><path d="m255.6 2.2h16c10.2 0 17.2.4 20.8 1.4s6.4 2.4 8.2 4.6 3 4.6 3.6 7.2.8 7.8.8 15.6v28.6c0 7.4-.4 12.2-1 14.8-.8 2.4-1.8 4.4-3.6 5.8s-3.8 2.4-6.4 3-6.4.8-11.4.8h-26.8zm21.4 14v53.8c3 0 5-.6 5.6-1.8.8-1.2 1-4.6 1-10v-31.8c0-3.8-.2-6-.4-7.2-.2-1-.8-1.8-1.6-2.2s-2.4-.8-4.6-.8z"/><path d="m358.6 40.6v16.4c0 6-.2 10.4-1 13.2-.6 2.8-1.8 5.4-3.8 7.8s-4.6 4.2-7.6 5.4-6.8 1.8-10.8 1.8c-4.6 0-8.4-.4-11.4-1.6s-5.6-2.4-7.2-4.4c-1.8-2-3-4.4-3.8-7.2s-1.2-7.2-1.2-12.8v-17.2c0-6.2.6-11.2 2-14.6s3.8-6.4 7.2-8.4 8-3.2 13.4-3.2c4.6 0 8.6.6 11.8 2s5.8 3.2 7.6 5.4 3 4.4 3.6 6.8 1.2 5.8 1.2 10.6zm-20.4-5.2c0-3.4-.2-5.6-.6-6.4s-1.2-1.4-2.4-1.4-2 .4-2.4 1.4c-.4.8-.6 3-.6 6.4v30.4c0 3.2.2 5.2.6 6.2s1.2 1.4 2.4 1.4 2-.4 2.4-1.4.6-2.8.6-5.6z"/><path d="m387 17v53.2c0 6.2-.2 10.4-.4 12.6s-1 4.2-2.4 5.8c-1.2 1.6-3 3-5.2 3.8s-5.4 1.2-9.8 1.2h-7.8v-10.8c2.4 0 3.8-.2 4.2-.8.2-.6.4-4 .4-10.2v-54.8zm0-14.8v10.6h-21v-10.6c-.2 0 21 0 21 0z"/><path d="m440.4 40.6v16.4c0 6-.2 10.4-1 13.2-.6 2.8-1.8 5.4-3.8 7.8s-4.6 4.2-7.6 5.4-6.8 1.8-10.8 1.8c-4.6 0-8.4-.4-11.4-1.6s-5.6-2.4-7.2-4.4c-1.8-2-3-4.4-3.8-7.2s-1.2-7.2-1.2-12.8v-17.2c0-6.2.6-11.2 2-14.6s3.8-6.4 7.2-8.4 8-3.2 13.4-3.2c4.6 0 8.6.6 11.8 2s5.8 3.2 7.6 5.4 3 4.4 3.6 6.8 1.2 5.8 1.2 10.6zm-20.4-5.2c0-3.4-.2-5.6-.6-6.4s-1.2-1.4-2.4-1.4-2 .4-2.4 1.4c-.4.8-.6 3-.6 6.4v30.4c0 3.2.2 5.2.6 6.2s1.2 1.4 2.4 1.4 2-.4 2.4-1.4.6-2.8.6-5.6z"/></g><path d="m51.2 37.8h-21.2v-14.2c0-4.2-.2-6.8-.6-7.8s-1.4-1.6-3-1.6c-1.8 0-2.8.6-3.4 1.8-.4 1.2-.8 4-.8 8.2v38c0 4 .2 6.6.8 7.8.4 1.2 1.6 1.8 3.2 1.8s2.6-.6 3.2-1.8c.4-1.2.8-4 .8-8.6v-10.2h21.2v3.2c0 8.4-.6 14.4-1.8 18s-3.8 6.6-8 9.4c-4 2.6-9.2 4-15.2 4s-11.4-1.2-15.4-3.4-6.8-5.4-8-9.4-2-10-2-18v-24c0-6 .2-10.4.6-13.2s1.6-5.8 3.6-8.6 4.8-4.8 8.4-6.4 7.6-2.4 12.2-2.4c6.2 0 11.4 1.2 15.6 3.6s6.8 5.4 8 9 2 9.2 2 16.8v8z" fill="#7e3967"/><path d="m104.4 40.6v16.4c0 6-.4 10.4-1 13.2s-2 5.4-4 7.8-4.6 4.2-7.6 5.4-6.6 1.8-10.8 1.8c-4.6 0-8.4-.4-11.4-1.6s-5.6-2.4-7.2-4.4c-1.8-2-3-4.4-3.8-7.2s-1.2-7.2-1.2-12.8v-17.2c0-6.2.6-11.2 2-14.6s3.8-6.4 7.2-8.4c3.6-2.2 8-3.2 13.4-3.2 4.6 0 8.6.6 11.8 2s5.8 3.2 7.6 5.4 3 4.4 3.6 6.8 1.4 5.8 1.4 10.6zm-20.4-5.2c0-3.4-.2-5.6-.6-6.4s-1.2-1.4-2.4-1.4-2 .4-2.4 1.4-.6 3-.6 6.4v30.4c0 3.2.2 5.2.6 6.2s1.2 1.4 2.4 1.4 2-.4 2.4-1.4c.4-.8.6-2.8.6-5.6z" fill="#7e3967"/><path d="m157.8 2.2v81.8h-20.6v-4.8c-2 2-4 3.6-6.2 4.6s-4.4 1.6-6.8 1.6c-3.2 0-6-.8-8.2-2.4s-3.8-3.6-4.4-5.8-1-5.8-1-10.8v-31.6c0-5.2.4-8.8 1-11s2.2-4 4.6-5.8c2.4-1.6 5.2-2.4 8.4-2.4 2.6 0 4.8.4 7 1.4s4 2.2 5.8 4.2v-19h20.4zm-20.6 31.6c0-2.4-.2-4.2-.6-5s-1.2-1.2-2.4-1.2-2 .4-2.4 1.2-.6 2.4-.6 5v32.8c0 2.8.2 4.6.6 5.4s1.2 1.4 2.4 1.4c1.4 0 2.2-.4 2.6-1.4s.6-3.4.6-7z" fill="#7e3967"/><path d="m211.4 51.8h-26.6v14.6c0 3 .2 5 .6 5.8s1.2 1.4 2.6 1.4c1.6 0 2.6-.6 3.2-1.8s.8-3.4.8-6.8v-8.8h19.4v4.8c0 4.2-.2 7.4-.8 9.6s-1.8 4.6-3.6 7.2c-2 2.6-4.4 4.4-7.4 5.6s-6.6 2-11.2 2-8.2-.6-11.4-1.8c-3.4-1.2-5.8-3-7.8-5.2s-3.2-4.6-3.8-7.2-1-6.4-1-11.4v-19.6c0-5.8.8-10.4 2.4-13.8s4.2-6 7.8-7.8 7.8-2.6 12.4-2.6c5.8 0 10.4 1 14.2 3.2s6.4 5 7.8 8.6c1.6 3.6 2.2 8.6 2.2 15.2.2-.2.2 8.8.2 8.8zm-20.6-11v-5c0-3.4-.2-5.8-.6-6.8s-1.2-1.6-2.2-1.6c-1.4 0-2.4.4-2.6 1.2-.4.8-.4 3.2-.4 7v5c-.2.2 5.8.2 5.8.2z" fill="#7e3967"/><path d="m238.4 17-.8 8.8c3-6.4 7.2-9.6 12.8-10v23.6c-3.8 0-6.4.4-8.2 1.6s-2.8 2.4-3.2 4.2-.6 6-.6 12.4v26.6h-20.4v-67.2z" fill="#7e3967"/><path d="m255.6 2.2h16c10.2 0 17.2.4 20.8 1.4s6.4 2.4 8.2 4.6 3 4.6 3.6 7.2.8 7.8.8 15.6v28.6c0 7.4-.4 12.2-1 14.8-.8 2.4-1.8 4.4-3.6 5.8s-3.8 2.4-6.4 3-6.4.8-11.4.8h-26.8zm21.4 14v53.8c3 0 5-.6 5.6-1.8.8-1.2 1-4.6 1-10v-31.8c0-3.8-.2-6-.4-7.2-.2-1-.8-1.8-1.6-2.2s-2.4-.8-4.6-.8z" fill="#7e3967"/><path d="m358.6 40.6v16.4c0 6-.2 10.4-1 13.2-.6 2.8-1.8 5.4-3.8 7.8s-4.6 4.2-7.6 5.4-6.8 1.8-10.8 1.8c-4.6 0-8.4-.4-11.4-1.6s-5.6-2.4-7.2-4.4c-1.8-2-3-4.4-3.8-7.2s-1.2-7.2-1.2-12.8v-17.2c0-6.2.6-11.2 2-14.6s3.8-6.4 7.2-8.4 8-3.2 13.4-3.2c4.6 0 8.6.6 11.8 2s5.8 3.2 7.6 5.4 3 4.4 3.6 6.8 1.2 5.8 1.2 10.6zm-20.4-5.2c0-3.4-.2-5.6-.6-6.4s-1.2-1.4-2.4-1.4-2 .4-2.4 1.4c-.4.8-.6 3-.6 6.4v30.4c0 3.2.2 5.2.6 6.2s1.2 1.4 2.4 1.4 2-.4 2.4-1.4.6-2.8.6-5.6z" fill="#7e3967"/><path d="m387 17v53.2c0 6.2-.2 10.4-.4 12.6s-1 4.2-2.4 5.8c-1.2 1.6-3 3-5.2 3.8s-5.4 1.2-9.8 1.2h-7.8v-10.8c2.4 0 3.8-.2 4.2-.8.2-.6.4-4 .4-10.2v-54.8zm0-14.8v10.6h-21v-10.6c-.2 0 21 0 21 0z" fill="#7e3967"/><path d="m440.4 40.6v16.4c0 6-.2 10.4-1 13.2-.6 2.8-1.8 5.4-3.8 7.8s-4.6 4.2-7.6 5.4-6.8 1.8-10.8 1.8c-4.6 0-8.4-.4-11.4-1.6s-5.6-2.4-7.2-4.4c-1.8-2-3-4.4-3.8-7.2s-1.2-7.2-1.2-12.8v-17.2c0-6.2.6-11.2 2-14.6s3.8-6.4 7.2-8.4 8-3.2 13.4-3.2c4.6 0 8.6.6 11.8 2s5.8 3.2 7.6 5.4 3 4.4 3.6 6.8 1.2 5.8 1.2 10.6zm-20.4-5.2c0-3.4-.2-5.6-.6-6.4s-1.2-1.4-2.4-1.4-2 .4-2.4 1.4c-.4.8-.6 3-.6 6.4v30.4c0 3.2.2 5.2.6 6.2s1.2 1.4 2.4 1.4 2-.4 2.4-1.4.6-2.8.6-5.6z" fill="#7e3967"/><g fill="#ea5a42"><path d="m471.2 40.2v-4.4c0-.4.2-.6.6-.6h16.2v-10.8h-16c-.4 0-.6-.2-.6-.6v-4.4c0-.4.2-.6.6-.6h21.4c.4 0 .6.2.6.6v20.6c0 .4-.2.6-.6.6h-21.6c-.4.2-.6 0-.6-.4z"/><path d="m500.6 32v-5c0-.4.2-.6.6-.6h23c.4 0 .6.2.6.6v5c0 .4-.2.6-.6.6h-23c-.4 0-.6-.2-.6-.6z"/><path d="m535.8 42.2-3.2-4.4c0-.2-.2-.2-.2-.4s.2-.2.4-.4c4-.6 7.6-2.2 10.2-4.6-2-1.2-4.4-2.4-6.4-3.4-.8.8-1.6 1.4-2.2 1.8-.2 0-.2.2-.4.2s-.4 0-.4-.2l-3.2-2.8c-.2-.2-.2-.2-.2-.4s0-.2.2-.4c4-2.4 6.6-6.6 7.4-9.2.2-.4.2-.4.6-.4h8.2c.2 0 .4 0 .6.2l2.2 1.4c-.4-.8-1-1.6-1.6-2.2-.2-.2-.2-.2-.2-.4s.2-.4.4-.4l1.6-.6c.2-.2.6 0 .8.2 1 1.2 2.2 3.2 3 4.8.2.4 0 .6-.2.8h-.2l1.4.8c.2.2.4.4.2.8-2 10.6-8.4 16.6-18 19.6-.4 0-.6-.2-.8-.4zm4-16.6c2 .8 4.4 1.8 6.6 3 1-1.8 1.8-3.8 2.2-6h-7.2c-.4 1-1 2-1.6 3zm15.2-4.4c-.2 0-.4-.2-.4-.4-.6-1.4-1.6-3.2-2.4-4.4 0-.2-.2-.2-.2-.4s.2-.4.4-.4l1.6-.6c.2-.2.6 0 .8.2 1 1.2 2.2 3.2 2.8 4.6.2.4 0 .6-.4.8l-1.8.8c0-.2-.2-.2-.4-.2z"/><path d="m560.6 32v-5c0-.4.2-.6.6-.6h23c.4 0 .6.2.6.6v5c0 .4-.2.6-.6.6h-23c-.2 0-.6-.2-.6-.6z"/><path d="m589.6 25.8h7c.2 0 .4.2.4.4v8.8c.8 2 2 2.8 5.6 3h2.8c3 0 7.4-.2 11.6-.6.4 0 .6.2.4.6l-1.4 4.4c0 .2-.2.4-.4.4-2 .2-5.8.2-9 .2-1.6 0-3 0-4 0-3.6-.2-6-1-7.6-2.8-.4.6-2.8 3-3.4 3-.2 0-.2 0-.4-.2l-2.6-4c-.2-.2 0-.4.2-.6 1-.6 2.4-1.4 3.2-2.2v-5.2h-2.2c-.2 0-.4-.2-.4-.4v-4c-.2-.6 0-.8.2-.8zm9.8-9.2c0-.2-.2-.2-.2-.2 0-.2.2-.4.4-.4l4.2-.8c.2 0 .4 0 .6.2.4.6 1 1.4 1.4 2.2h2.2c.4-.6 1-1.4 1.2-2.2.2-.2.4-.4.6-.4l4.2.6c.4 0 .4.4.4.6-.2.4-.4.8-.8 1.2h2.6c.4 0 .4.2.4.4v3c0 .2-.2.4-.4.4h-7c-.2.4-.2.6-.4 1h6.4c.2 0 .4.2.4.4v13c0 .2-.2.4-.4.4h-16c-.2 0-.4-.2-.4-.4v-13c0-.2.2-.4.4-.4h4.2c.2-.4.2-.6.4-1h-5.6c-.2 0-.4-.2-.4-.4l-3.4 2.4h-.2c-.2 0-.4 0-.4-.2-1-1.8-2.2-3.6-3.6-4.8-.2-.2-.2-.2-.2-.4s0-.2.2-.4l3.2-2.4.2-.2c.2 0 .2 0 .4.2 1.6 1.2 3 3 3.8 4.8v-1.6c0-.2.2-.4.4-.4h2.4c-.8-.4-1-.8-1.2-1.2zm10.6 10.4v-1h-6.4v1zm-6.4 2.2v1.2h6.4v-1.2zm0 3.2v1.2h6.4v-1.2z"/><path d="m639.4 43.2-1-2.8c-1.2 1.4-2.4 2.4-4 3.2-.2.2-.4 0-.6 0l-2.4-2.2c-.2 0-.2-.2-.2-.2 0-.2.2-.2.4-.4 2.8-1 4.8-3 5.8-5.2h-1c-1.4 2.2-3.6 4.2-6.2 5.2-.2 0-.4 0-.6-.2l-1.8-2.2c0-.2-.2-.2-.2-.2 0-.2.2-.2.4-.4 2-.4 3.4-1.2 4.4-2.2h-1c-.4.4-1 .6-1.6 1-.2.2-.4 0-.6-.2l-.8-1.6v2.2c0 .2 0 .4-.2.4-2 1.2-5 2.4-8 3.2-.4 0-.4 0-.6-.4l-1-4.4c0-.2 0-.4.4-.6.8-.2 1.8-.4 2.6-.6v-7.4h-1.8c-.4 0-.4-.2-.4-.4v-4c0-.2.2-.4.4-.4h1.8v-6c0-.4.2-.4.4-.4h4.4c.2 0 .4.2.4.4v5.8h1.4c.4 0 .4.2.4.4v4c0 .2-.2.4-.4.4h-1.4v5.2l1-.6c.4-.2.6 0 .6.4v.2c1.2-.4 2.4-1 3-1.6h-2c-.4 0-.4-.2-.4-.4v-2.8c0-.2.2-.4.4-.4h17.2c.4 0 .4.2.4.4v2.8c0 .2-.2.4-.4.4h-10.4l-.6 1h10.6c.4 0 .4.2.4.4v5.6c-.2 5-1.8 6-6.4 5.8-.4.2-.6 0-.8-.2zm-9.8-17.4v-9.2c0-.2.2-.4.4-.4h15c.4 0 .4.2.4.4v9.2c0 .2-.2.4-.4.4h-15c-.2 0-.4-.2-.4-.4zm11-5.6v-1.2h-5.8v1.2zm-5.8 2v1.2h5.8v-1.2zm4.8 16.8c1.8 0 2-.2 2.2-1.4 0-.6 0-1.4 0-2h-.4c-.6 1-1.2 2.2-1.8 3.4z"/><path d="m478.8 79.6-1.4-4c-.2-.4 0-.6.4-.6 3.4.2 6.4 0 8.2-1.2 1.6-1 2.6-2.4 2.6-3.8 0-1.6-1.4-3.2-4.6-3.2h-1.2c-3.2.4-6.4 1.2-8.6 2-.4 0-.6 0-.8-.4l-1.2-3.8c-.2-.4 0-.6.4-.6 3-.6 6.8-1.4 10.8-1.8h1.4c6.6 0 9.4 3.8 9.4 7.8 0 3.2-1.8 6.4-5 8.2-2.8 1.6-6.8 2-9.8 2-.4-.2-.6-.4-.6-.6z"/><path d="m506 71c0-3.6 2.4-7.4 5.8-9.2-3.4.2-7.6.4-11.2.4-.4 0-.6-.2-.6-.6v-4.4c0-.4.2-.6.6-.6 6.2 0 17 0 23.6-.2.4 0 .6.2.6.6v4.2c0 .4-.2.6-.4.6-1 0-1.8.2-2.6.2-3.8.6-9.8 4-9.8 8 0 2.6 2.8 4.6 9.4 4.6.4 0 .4.2.4.4v.2l-.8 4.6c0 .4-.4.4-1 .4-6 .4-14-2-14-9.2z"/><path d="m529.2 75c0-.2 0-.2.2-.4 2.2-3.6 4-7.2 5.4-11.2h-3.8c-.4 0-.6-.2-.6-.6v-3.8c0-.4.2-.6.6-.6h5c.2-1 .4-2.2.6-3.4 0-.4.2-.6.6-.4l4.4.2c.4 0 .6.2.4.6-.2 1-.4 2-.6 3h3c.4 0 .6.2.6.6v3.8c0 .4-.2.6-.6.6h-4.2c-1.6 4.6-3.6 9-5.8 13-.2.4-.4.4-.8.4l-4-1.2c-.2-.4-.4-.4-.4-.6zm22.8 4.6c-.2 0-.4 0-.4-.2-.6-.8-1.4-1.6-2-2.2-1 2.6-4 3.8-6.6 3.8-3.2 0-6.4-1.6-6.4-5.2 0-1.6.8-3.4 2.4-4.6 1.2-1 2.8-1.4 4.4-1.4.6 0 1.2 0 1.8.2 0-1.6 0-3.2 0-4.8 0-.4.2-.6.6-.6h4c.4 0 .6.2.6.6v6.4c2 1 4 2.4 5.6 3.8.2.2.2.2.2.4s0 .2-.2.4l-3 3.4c-.6 0-.8 0-1 0zm-9-5.8c-.8 0-2 .4-2 1.4 0 .4 0 .6.4.8.4.4 1 .6 1.6.6 1.6 0 2-.8 2-2.4-.6-.2-1.2-.4-2-.4zm3-11c-.4 0-.6-.2-.4-.8l.8-3.4c0-.4.2-.4.6-.4 3 .2 6.6 1 9 2.4.2.2.2.2.2.4s0 .2 0 .4l-2.2 3.8c-.2.2-.2.4-.4.4s-.2 0-.4-.2c-1.8-1.6-4.2-2.2-7.2-2.6z"/><path d="m575 80.6-1.2-3.4c-.2-.4 0-.6.4-.8 3.2-.6 4.4-2.2 4.4-3.6 0-.8-.4-1.6-1-2.2-2 3.4-6 9.4-10.4 9.4-3 0-4.8-2.4-4.8-5.2s1.8-5.6 5-7.4v-2.2h-3.8c-.4 0-.6-.2-.6-.6v-3.4c0-.4.2-.6.6-.6h4v-1.6c0-.4.2-.6.6-.6h3.6c.4 0 .6.2.6.6l-.2 1.4h9.8c.4 0 .6.2.6.6v3.4c0 .4-.2.6-.6.6h-10.2v1h1.8c1.6 0 3.4.2 4.6.6 3.2 1 5 4 5 6.8 0 3.2-2.2 6.4-7.4 7.4-.6.2-.8 0-.8-.2zm-7.6-9c-.6.8-1 1.8-1 2.6 0 .4.2 1.6.8 1.6.2 0 .4 0 .6-.2.2 0 .2-.2.4-.4-.4-1.2-.8-2.4-.8-3.6zm5.6-1.8c-.2 0-.2 0-.4 0-.4 0-1 0-1.4.2 0 .8.2 1.6.2 2.2z"/><path d="m591.2 79.6c-.4-2.4-.4-5.4-.4-8.4 0-5 .4-10.6 1-15.6 0-.4.2-.6.6-.4l4.6.2c.4 0 .6.2.4.6-.8 4.2-1 9.2-1 13.8 0 3.4.2 6.6.6 9.4 0 .4-.2.6-.4.6l-4.8.2c-.4 0-.6 0-.6-.4zm17.2-.2c-3.8 0-10-.8-10-5.8 0-1 .2-2.2.6-3.4.2-.4.4-.4.6-.4l3.6.4c.4 0 .6.4.4.6-.2.4-.2 1-.2 1.2 0 2 2.8 2.2 4.2 2.2 1.8 0 4-.4 6.4-1 .4-.2.6 0 .6.4l.2 4.6c0 .4-.2.6-.4.6-1.6.4-3.8.6-6 .6zm-1.8-16.6c-2 0-4.2.2-6.2.4-.4 0-.6 0-.6-.4l-.4-4.2c0-.4.2-.6.4-.6 2.4-.2 5-.4 7.4-.4s4.6.2 6.8.4c.4 0 .4.2.4.6l-.4 4.2c0 .4-.2.6-.6.4-2-.2-4.4-.4-6.8-.4z"/><path d="m629 72.4-.2-5.6c0-.4.2-.6.6-.6h.6c3.8 0 5-1.6 5-3.8 0-1.8-1.2-3-3.2-3-1.4 0-2.8.6-3.4 1.8-.2.4-.4.6-.8.4l-4.6-1c-.2 0-.4-.4-.2-.8 1.6-4 4.8-6 9.2-6 5.4 0 9 3 9 7.8 0 3.8-2.4 7-6.6 8v2.8c0 .4-.4.6-.6.6h-4.4s-.4-.2-.4-.6zm-.6 6c0-2 1.4-3.2 3.4-3.2s3.4 1.2 3.4 3.2-1.4 3.2-3.4 3.2c-1.8 0-3.4-1.2-3.4-3.2z"/></g></svg>