<svg enable-background="new 0 0 554 126" viewBox="0 0 554 126" xmlns="http://www.w3.org/2000/svg"><g fill="#fff"><path d="m2.6 48.7 7.8 3.3c2 .9 4.1.1 5-1.7 1.3-2.4 2.4-5.4 3.3-8.4v9c0 2.2 1.6 3.8 3.8 3.8h7.8c2.2 0 3.8-1.6 3.8-3.8v-10c1 3.3 2.1 6.5 3.3 9 .1.3.3.6.5.9v1.4h2.8c.3 0 1 0 1.8-.4l7.9-3.7.1-.1c2-1 2.2-2.7 2.2-3.3 0-.8-.3-1.4-.5-1.8l-.2-.3c-2.4-3.7-5-10.6-6-15.3-.1-.7-.4-1.4-.9-1.9h1.1c2.2 0 3.8-1.6 3.8-3.8v-5.5l1.2-.5c1-.4 1.8-1.1 2.2-2.1s.4-2-.1-3c-1-3.1-3.5-6.5-5.3-8.4l-.1-.1c-1.2-1.2-2.9-1.5-4.3-.8l-3 1.2c-.6.2-1.1.6-1.5 1-.8-.2-1.6-.1-2.4.2l-3.1 1.2c-.1 0-.1 0-.2.1-.7-.9-1.8-1.5-3.1-1.5h-8c-2.2 0-3.8 1.6-3.8 3.8v3.7h-12.2c-2.2 0-3.8 1.6-3.8 3.8v6.9c0 2.2 1.6 3.8 3.8 3.8h1.7c-.5.5-1 1.2-1.2 2.3-.5 4-2.2 9.7-4.8 13.9l-1.8 3.7c0 1.5.9 2.8 2.4 3.4zm15.5-23-1.5-.2h2v.4c-.2-.2-.3-.2-.5-.2zm16.1-.3h2l-1.4.3c-.2 0-.4.1-.6.2z"/><path d="m56.5 18c-2.2 0-3.8 1.6-3.8 3.8v7.3c0 2.2 1.6 3.8 3.9 3.8 7.9-.1 16.7-.2 24.2-.3-3.3 4.3-10.6 7.2-19.8 7.5-2.1 0-3.7 1.5-3.7 3.5 0 .8.3 1.3.4 1.7l4.5 8 1.9 3.2 1.2-1.2h.9c20.9-1.5 33.1-13.7 33.4-33.6 0-2.2-1.6-3.8-3.8-3.8h-.5c.3-.5.4-1.2.4-1.9v-7c0-2.2-1.6-3.8-3.8-3.8h-31.6c-2.2 0-3.8 1.6-3.8 3.9v7c0 .7.2 1.3.4 1.8h-.4z"/><path d="m102.7 19.8.9.4c3.6 1.7 7.9 4.6 11 7.4.3.2 1.2 1 2.5 1 1.1 0 2.2-.5 2.9-1.3l5.5-6.2c.9-.9 1.1-1.9 1.1-2.6 0-1.5-.9-2.4-1.3-2.7l-.1-.1c-4.7-4.2-10.9-7.4-15-8.8-1.7-.6-3.4-.1-4.5 1.4l-3.8 4.9-.9-.4v1.7c-.2.4-.6 1.1-.6 2 0 1.4.9 2.7 2.3 3.3z"/><path d="m105.3 37.9c-1.7.2-2.5 1.2-2.8 1.7-.6.9-.7 2.1-.3 3.1l2.4 7.9v.2c.5 1.8 2 2.9 3.7 2.9.2 0 .4 0 .6-.1 20-2.8 33.6-14 40.3-33.1.6-1.8 0-3.5-1.6-4.6l-7-4.5-.3-.1c-.3-.2-.9-.5-1.9-.5-1.5 0-2.8 1-3.4 2.6-5.3 15.2-14.3 22.6-29.7 24.5z"/><path d="m168 33.3c-1.2 3.1-4.1 6.1-11.9 7.8-1.8.4-3 1.8-3 3.5 0 .9.4 1.9 1.1 2.6l6.2 6.4 1.1-1.1-1.1 1.1c.8.8 1.8 1.2 2.9 1.2.4 0 .8-.1 1.2-.2h.1c14.2-4.5 18.1-13.4 19.4-21.3h13c2.2 0 3.8-1.6 3.8-3.8v-6.8c0-2.2-1.6-3.8-3.8-3.8h-2.4c.6-.7.9-1.5.9-2.5v-7c0-2.2-1.6-3.8-3.8-3.8h-32.7c-2.2 0-3.8 1.6-3.8 3.8v6.8c0 1 .3 1.9.9 2.6h-2.4c-2.2 0-3.8 1.6-3.8 3.8v6.8c0 2.2 1.6 3.8 3.8 3.8h14.3z"/><path d="m206.9 43 .9 1.3h.5c.9.6 2 .7 3.2.3 2.9-.9 5.9-2.1 8.8-3.6v10.3c0 2.2 1.6 3.8 3.8 3.8h7.7c2.2 0 3.8-1.6 3.8-3.9l-.2-21c3.3-3 6.2-6.4 8.7-9.9.5-.7.8-1.5.8-2.2 0-.6-.2-2.1-1.9-3.2l-7.1-3.6c-1.9-.9-3.9-.3-5 1.4-5.6 8.4-16.2 15.7-25.8 17.7-1.8.4-3.1 1.8-3.1 3.5 0 .9.3 1.5.5 1.8z"/><path d="m251.2 40.4c-1.8.4-3 1.8-3 3.5 0 .8.3 1.5.8 2.2l5.6 7.1c.8 1 1.9 1.5 3 1.5.5 0 1-.1 1.5-.3 8.2-3 14-8 17.2-14.8l.1.1h.4c1 .5 2.3.6 3.5.1 11.5-5.1 17.4-15 17.5-29.4 0-2.2-1.6-3.8-3.8-3.8l-41.6.1c-2.2 0-3.8 1.6-3.8 3.8v7.2c0 2.2 1.6 3.8 3.9 3.8l11.5-.1v.4c.4 7.5-.8 15.6-12.8 18.6zm28.2-19.1h.8c-.2.4-.5.8-.8 1.1 0-.2 0-.5 0-.7s0-.3 0-.4z"/><path d="m358.1 26.4c2.6-4.8 4.8-9.9 6.4-15.2.8-2.2-.1-4.4-2.3-5.2l-8.1-2.8c-1.1-.3-2.2-.3-3.1.2s-1.5 1.4-1.8 2.3c-1.2 4.2-2.6 8.1-4.3 11.6-3.6-2.1-7.2-3.8-10.6-5.2-1.7-.7-3.5-.2-4.7 1.2l-5 5.8c-.7.7-1 1.6-1 2.5 0 1.5.9 2.8 2.3 3.4 3.7 1.7 7.2 3.4 10.2 5.2-4.5 4.6-9.8 7.9-16.2 9.8-1.7.4-2.8 1.8-2.8 3.4 0 .9.3 1.7 1 2.5l10.8 13.2v-5.2c7.3-3 13.9-7.8 19.6-14.4 2.1 2 4.1 4.2 6 6.6.7 1 1.8 1.5 3 1.5 1 0 1.9-.3 2.6-1l7-5.9c.9-.8 1.4-1.8 1.4-2.9 0-.9-.4-1.9-1-2.6-2.3-2.7-5.6-5.8-9.4-8.8z"/><path d="m372 20.2c3.6 1.7 7.9 4.6 11 7.4.3.2 1.2 1 2.5 1 1.1 0 2.2-.5 2.9-1.3l5.5-6.2c.9-.9 1.1-1.9 1.1-2.6 0-1.5-.9-2.4-1.3-2.7l-.1-.1c-4.7-4.2-10.9-7.4-15-8.8-1.7-.6-3.4-.1-4.5 1.4l-3.8 4.9-.9-.4v1.7c-.2.4-.6 1.1-.6 2 0 1.4.9 2.7 2.3 3.3z"/><path d="m416.1 15.9-7-4.5-.2-.1c-.3-.2-.9-.5-1.9-.5-1.5 0-2.8 1-3.4 2.6-5.5 15.4-14.4 22.8-29.9 24.7-1.7.2-2.5 1.2-2.8 1.7-.6.9-.7 2-.3 3.1l2.4 7.9v.2c.5 1.8 2 2.9 3.7 2.9.2 0 .4 0 .7-.1 20-2.8 33.6-14 40.3-33.1.6-2 0-3.8-1.6-4.8z"/><path d="m457.4 17.9 2.3-.8c.7-.2 1.2-.6 1.6-1 .6.1 1.3.1 2-.2l2.7-.9c1.1-.3 1.9-1 2.3-2 .4-.9.5-2 .1-3-1.1-2.8-2.8-5.8-4.7-8-1.2-1.3-2.8-1.7-4.4-1.1l-2.3.8h-.1c-.7.3-1.2.6-1.6 1-.7-.2-1.5-.1-2.3.2l-2.5.9c-1.5.6-2.5 1.9-2.5 3.4 0 .2 0 .5.1.7l-7.4 1.9c-.6.1-1.2.4-1.6.8-.6-.7-1.5-1.1-2.4-1.1l-8.6-.9h-.1c-2.2-.1-3.9 1.3-4.1 3.4-1.3 11.4-5.2 23.1-10.6 31.5h-1.2v2.8c0 1.5.9 2.8 2.5 3.4l9 3.2c.5.2 1 .3 1.4.3 1.3 0 2.6-.7 3.3-2 5.1-8.7 9.2-21 11.2-33.5 4 7.9 7.2 18.4 8.8 28.7h-.1l.5 3.3c.2 1.1.8 2.1 1.6 2.6.9.6 1.9.7 3 .5l10-2.6c2-.5 3.1-2.3 2.8-4.3-1-7.6-4.6-18.7-8.7-28z"/><path d="m511 21h-40.4c-2.2 0-3.8 1.6-3.8 3.8v8.8c0 2.2 1.6 3.8 3.8 3.8l40.4.1c2.2 0 3.8-1.6 3.8-3.8v-8.9c0-2.2-1.6-3.8-3.8-3.8z"/><circle cx="543.6" cy="29.2" r="10.3"/><path d="m41.1 94.8c2.6-4.8 4.8-9.9 6.5-15.2.8-2.2-.2-4.3-2.3-5.1l-8.1-2.8c-1.1-.4-2.2-.3-3.1.2s-1.5 1.4-1.8 2.3c-1.2 4.2-2.6 8.1-4.3 11.6-3.6-2.1-7.2-3.8-10.6-5.2-1.7-.7-3.5-.2-4.7 1.2l-5 5.8c-.7.7-1 1.6-1 2.5 0 1.5.9 2.8 2.3 3.4 3.7 1.7 7.2 3.4 10.2 5.2-4.5 4.6-9.8 7.9-16.2 9.8-1.7.4-2.8 1.8-2.8 3.4 0 .9.3 1.7 1 2.5 0 0 6.5 8.4 7.6 8.9.9.3 3.2-.8 3.2-.8 7.3-3 13.9-7.8 19.6-14.4 2.1 2 4.1 4.2 6 6.6.7 1 1.8 1.6 3 1.6 1 0 1.9-.3 2.6-1l7-5.9c.9-.8 1.4-1.8 1.4-2.9 0-.9-.4-1.9-1-2.6-2.4-2.9-5.7-6-9.5-9.1z"/><path d="m55 88.7c3.6 1.7 7.9 4.6 11 7.4.3.2 1.2 1 2.5 1 1.1 0 2.2-.5 2.9-1.3l5.5-6.2c.9-.9 1.1-1.9 1.1-2.6 0-1.5-.9-2.4-1.2-2.7l-.1-.1c-4.7-4.2-10.9-7.4-15-8.8-1.7-.6-3.4-.1-4.5 1.4l-3.8 4.9-.9-.4v1.7c-.2.4-.6 1.1-.6 2 0 1.4.9 2.7 2.3 3.3z"/><path d="m99.1 84.3-7-4.5-.3-.2c-.3-.2-.9-.5-1.9-.5-1.5 0-2.8 1-3.4 2.6-5.5 15.4-14.4 22.8-29.9 24.7-1.7.2-2.5 1.2-2.8 1.7-.6.9-.7 2.1-.3 3.1l2.5 7.8v.2c.5 1.8 2 2.9 3.7 2.9.2 0 .4 0 .7-.1 20-2.8 33.6-14 40.3-33.1.6-1.8 0-3.5-1.6-4.6z"/><path d="m146.5 74-28.3.1c-1.7 0-3.1.9-3.8 2.5l-.1.2c-1.6 4.6-5.7 11.2-11.9 14.8-1.2.7-1.9 1.9-1.9 3.2 0 1.1.5 2.1 1.3 2.8l5.7 5c1.3 1.3 3.4 1.4 4.9.3 1-.7 1.9-1.4 2.9-2.2 1.9.9 3.8 1.9 5.6 2.9-3.7 2.4-8.2 4-13.3 4.8-2.3.4-3.1 2.1-3.1 3.5 0 .8.3 1.5.8 2.3l5.2 6.8.6.8c.8 1.1 2 1.6 3.2 1.6.4 0 .8-.1 1.2-.2 21.3-6.4 33-21.6 34.7-45.1.1-1.1-.2-2.2-.9-3-.6-.7-1.6-1.1-2.8-1.1zm-14 14.3c-.4 1.4-.9 2.7-1.5 3.9-2-1-4.1-2-6.3-2.9.2-.3.4-.7.5-1z"/><path d="m195.4 89.5h-40.4c-2.2 0-3.8 1.6-3.8 3.8v8.8c0 2.2 1.6 3.8 3.8 3.8l40.4.1c2.2 0 3.8-1.6 3.8-3.8v-8.9c.1-2.2-1.5-3.8-3.8-3.8z"/><path d="m308.1 111.3c.2-.5.4-1 .4-1.6v-5.1c0-1.1-.4-2-1.1-2.7 0-.2.1-.5.1-.8v-4.2c0-1.7-1-3-2.5-3.5v-2.6c0-.6-.1-1.1-.3-1.6.2-.5.3-1 .3-1.6v-2.8c1-.6 1.7-1.8 1.7-3.1v-4.4c0-2.1-1.6-3.7-3.7-3.7h-8.8c0-.4-.2-.7-.3-1.1-.5-1.1-1.6-1.8-2.9-1.9l-8.3-.4h-.1c-1 0-2.4.3-3.4 1.9l-.1.2c-.1.2-.3.5-.5.8 0-.2-.1-.3-.2-.5-.5-1.1-1.6-1.8-2.9-1.9l-7.9-.9c-1.6-.2-3.1.6-3.8 2-2.2 3.9-5.5 7.8-8.9 10.2-1.4 1-2 2.6-1.4 4.3l3.1 8 .1.3c.7 1.3 1.6 1.8 2.3 1.9v4.2c-1.5 0-2.8.9-3.3 2.2v-4c0-2.1-1.6-3.7-3.7-3.7h-.1v-11.5c1.6-.4 2.7-1.8 2.7-3.6v-4.6c0-2.1-1.6-3.7-3.7-3.7h-7.4c-.6-1.1-1.8-1.8-3.2-1.8h-7.5c-1.4 0-2.6.7-3.2 1.8h-3c-.6-1.1-1.8-1.8-3.2-1.8h-7.5c-1.4 0-2.6.7-3.2 1.8h-7.2c-2.1 0-3.7 1.6-3.7 3.7v4.6c0 1.8 1.1 3.2 2.8 3.6v11.7h-.1c-2.1 0-3.7 1.6-3.7 3.7v4.1c0 .4.1.9.2 1.3-.4.3-.7.7-.8 1-.5 1-.5 2.1 0 3.1l2.6 5.8c.5 1.1 1.4 1.8 2.4 2 .1.2.1.4.2.7l2.6 5.8c.6 1.5 1.9 2.4 3.5 2.4h.4c5.9-.4 10.7-1.5 14.5-3.5l.2.6c.5 1.6 1.9 2.6 3.6 2.7 10.4.4 16.1-.9 17.5-8.8.5.2 1 .4 1.4.5 1.9.6 3.7-.2 4.6-2l1.9-4.4c.1.4.2.7.4 1-.5.3-.8.7-1.1 1.2-.6 1-.6 2.2-.1 3.2l2.8 6.7c.7 1.6 2.2 2.5 4 2.3h.1c4.1-.7 8.5-2 12.6-3.9v.8c0 2.1 1.6 3.7 3.7 3.7h7.9c2.1 0 3.7-1.6 3.7-3.7v-1.3c4.1 1.9 8.7 3.4 13.4 4.4 1.8.4 3.5-.4 4.3-2.2l2.8-6.6c.5-1.1.5-2.3-.1-3.3-.8-.7-1.3-1.1-1.9-1.4z"/><path d="m331.4 109.7c1.3-.6 2.1-1.9 2.1-3.4l.7-31.2c0-2.2-1.6-3.8-3.8-3.8h-8.2c-2.2 0-3.8 1.6-3.8 3.9l.7 30.2v.9c0 1.6.8 2.8 2.1 3.4-2.2 1.5-3.6 4-3.6 7 0 4.9 3.7 8.4 8.8 8.4s8.7-3.4 8.7-8.4c-.1-3-1.5-5.5-3.7-7z"/></g><g fill="#040000"><path d="m3 45.3c0-.2.1-.4.3-.6 3.4-4.5 5.6-11.5 6.3-16.6.1-.6.5-.9 1.1-.8l6.9 1.2c.6.1.9.5.8 1.1-.8 5.9-2.8 14.3-5.6 19.5-.3.5-.7.7-1.3.4l-7.9-3.5c-.4-.1-.6-.4-.6-.7zm27.3 6.6h-7.8c-.6 0-1-.3-1-1l-.1-28.3h-15.1c-.6 0-1-.4-1-1v-6.9c0-.6.4-1 1-1h15v-6.6c0-.7.4-1 1-1h8c.6 0 1 .3 1 1v6.5h6.1c-.9-1.8-2.1-3.6-3.1-5-.3-.2-.3-.4-.3-.6 0-.3.2-.5.6-.7l3.1-1.2c.5-.2.9-.1 1.4.4 1.6 1.8 3.6 4.8 4.6 7.2h2.1c-1.1-2.7-2.8-5.4-4.5-7.4-.2-.2-.3-.5-.3-.7 0-.3.2-.5.6-.7l3-1.2c.5-.2.9-.1 1.3.3 1.7 1.8 3.9 4.9 5.1 7.6.3.6.1 1.1-.5 1.3l-3.1 1.2c.1.2.1.3.1.5v6.9c0 .6-.3 1-1 1h-15.2v28.3c0 .7-.3 1.1-1 1.1zm10.6-2.6c-.3 0-.6-.2-.8-.6-2.5-5.1-4.6-13.2-5.6-19.1-.1-.6.2-1.1.8-1.2l7-1.4c.6-.1 1.1.2 1.2.8 1 5 3.8 12.3 6.4 16.3.1.2.2.4.2.6 0 .3-.2.6-.6.8l-8 3.7c-.3.2-.5.2-.6.1z"/><path d="m64.7 52-4.4-7.8c-.1-.2-.2-.4-.2-.5 0-.4.3-.7.9-.7 13.3-.4 22.5-5.7 24.2-13.2-8.4.1-19.4.2-28.7.4-.6 0-1-.4-1-1v-7.3c0-.7.4-1 1-1h39.2c.6 0 1 .3 1 1-.3 18-11.1 29.3-30.7 30.7-.6 0-1-.2-1.3-.6zm-5.5-35.8v-7c0-.7.4-1.1 1-1.1l31.6-.1c.6 0 1 .3 1 1v7.1c0 .6-.4 1-1 1h-31.6c-.6 0-1-.3-1-.9z"/><path d="m103.8 17.3c-.4-.2-.6-.4-.6-.7 0-.2.1-.4.3-.6l4.4-5.8c.4-.5.7-.6 1.3-.4 4.1 1.3 9.9 4.5 14.1 8.2.3.3.4.5.4.7s-.1.4-.3.6l-5.6 6.2c-.2.3-.5.4-.7.4s-.4-.1-.7-.3c-3.8-3.5-8.8-6.7-12.6-8.3zm3.5 32.7-2.5-8.1c-.2-.6.1-1.1.8-1.2 18-2.2 26.8-11.6 32.2-26.5.2-.4.4-.7.7-.7.2 0 .4.1.6.2l7 4.5c.5.3.7.7.5 1.3-5.6 16.1-17.2 28.3-38 31.2-.6.2-1.1-.1-1.3-.7z"/><path d="m162.4 51.6-6.2-6.4c-.2-.2-.3-.5-.3-.6 0-.3.3-.6.7-.7 10.8-2.4 14-7.2 14.9-13.4h-17.9c-.6 0-1-.4-1-1v-6.8c0-.6.4-1 1-1h43.4c.6 0 1 .4 1 1v6.8c0 .6-.4 1-1 1h-15.5c-1.1 9.7-4.9 17.4-17.8 21.5-.5.1-.9 0-1.3-.4zm-4.4-35.4v-6.8c0-.7.4-1 1-1h32.6c.6 0 1 .3 1 1v6.9c0 .6-.4 1-1 1l-32.6-.1c-.6 0-1-.3-1-1z"/><path d="m209.3 41.5-4.3-6.8c-.1-.2-.2-.4-.2-.6 0-.4.3-.6.8-.7 11.2-2.4 22.1-10.7 27.6-19 .3-.5.8-.6 1.4-.4l6.9 3.4c.4.2.6.5.6.8 0 .2-.1.4-.2.6-2.7 3.8-5.9 7.3-9.3 10.3l.2 22.3c0 .6-.4 1-1 1h-7.8c-.7 0-1-.4-1-1l.1-15.1c-4.3 2.6-8.5 4.5-12.5 5.7-.6.2-1 0-1.3-.5z"/><path d="m277.8 36.9-2.4-2.8c-2.1 7.6-7.2 14.1-17.2 17.7-.5.2-.9.1-1.3-.4l-5.5-7c-.2-.2-.3-.4-.3-.6 0-.4.3-.6.8-.7 14.6-3.7 15.3-14.4 14.9-21.5-.1-.6.3-1 .9-1l7.9.1c.6 0 1.1.3 1.1.9.1 2.2.1 4.3-.2 6.4 4.3-2 7.2-5.5 7.8-9.7l-31.9.3c-.6 0-1-.4-1-1v-7.2c0-.6.4-1 1-1l41.6-.1c.7 0 1 .4 1 1-.1 13.4-5.2 22.2-15.8 26.8-.6.4-1.1.3-1.4-.2z"/><path d="m326.4 51.4-5.7-7.1c-.2-.3-.3-.5-.3-.7 0-.3.3-.6.7-.7 8.1-2.4 14.6-6.8 19.8-13.1-4-2.6-8.5-5-13.5-7.2-.4-.2-.6-.4-.6-.7 0-.2.1-.4.3-.6l5.1-6c.4-.5.8-.6 1.4-.4 4 1.6 8.4 3.8 12.8 6.5 2.3-4.3 4.2-9.3 5.8-14.9.2-.6.6-.8 1.3-.6l8.1 2.7c.6.2.8.7.5 1.5-2 6.1-4.5 11.8-7.4 16.9 4.3 3.2 8.2 6.8 11.2 10.4.2.2.3.5.3.7 0 .3-.2.5-.4.7l-7 5.9c-.2.2-.5.3-.7.3-.3 0-.5-.1-.7-.4-2.6-3.3-5.4-6.2-8.5-9-5.9 7.3-12.9 12.9-20.9 16-.8.4-1.2.3-1.6-.2z"/><path d="m372.2 17.3c-.4-.2-.6-.4-.6-.7 0-.2.1-.4.3-.6l4.4-5.8c.4-.5.7-.6 1.3-.4 4.1 1.3 9.9 4.5 14.1 8.2.3.3.4.5.4.7s-.1.4-.3.6l-5.6 6.2c-.2.3-.5.4-.7.4s-.4-.1-.7-.3c-3.8-3.5-8.8-6.7-12.6-8.3zm3.6 32.7-2.5-8.1c-.2-.6.1-1.1.8-1.2 18-2.2 26.8-11.6 32.2-26.5.2-.4.4-.7.7-.7.2 0 .4.1.6.2l7 4.5c.5.3.7.7.5 1.3-5.6 16.1-17.2 28.3-38 31.2-.7.2-1.2-.1-1.3-.7z"/><path d="m415 46.3c0-.2.1-.4.2-.6 6.3-9.4 10.3-22.3 11.5-33.5.1-.7.4-.9 1.1-.9l8.6.9c.7.1 1 .5.9 1.2-1.6 12.7-5.6 26.5-11.3 36.3-.3.5-.8.7-1.3.5l-9.1-3.2c-.4-.1-.6-.4-.6-.7zm36.7 2.9c-1.5-12.2-5.5-25.9-10.8-35.3-.1-.2-.2-.4-.2-.6 0-.3.2-.6.7-.7l8.2-2.1c.6-.2 1 0 1.3.5 5.5 10 11 25.6 12.6 35.3.1.6-.2 1-.7 1.2l-9.9 2.5c-.7.2-1.1-.1-1.2-.8zm3-34.5c-.8-2.3-2.1-5-3.5-6.9-.2-.2-.2-.4-.2-.5 0-.3.2-.6.6-.7l2.5-.9c.5-.2.9-.1 1.3.4 1.6 2 3.2 4.6 4.1 7.2.2.6-.1 1.1-.6 1.3l-2.9 1c-.7 0-1.1-.2-1.3-.9zm6.5-2.1c-.8-2.3-2.2-4.8-3.6-6.8-.2-.3-.3-.5-.3-.7 0-.3.2-.5.6-.7l2.4-.8c.6-.2 1-.1 1.4.3 1.6 1.8 3.2 4.5 4.2 7.1.2.6 0 1.1-.6 1.3l-2.7.9c-.7.2-1.1 0-1.4-.6z"/><path d="m469.6 33.7v-8.8c0-.6.4-1 1-1h40.4c.6 0 1 .4 1 1v8.9c0 .6-.4 1-1 1l-40.4-.1c-.7 0-1-.4-1-1z"/><path d="m536.1 29.2c0-4.2 3.3-7.4 7.4-7.4s7.4 3.3 7.4 7.4-3.3 7.4-7.4 7.4-7.4-3.2-7.4-7.4z"/><path d="m9.4 119.9-5.7-7.1c-.2-.3-.3-.5-.3-.7 0-.3.3-.6.7-.7 8.1-2.4 14.6-6.8 19.8-13.1-4-2.6-8.5-5-13.5-7.2-.4-.2-.6-.4-.6-.7 0-.2.1-.4.3-.6l5.1-6c.4-.5.8-.6 1.4-.4 4 1.6 8.4 3.8 12.8 6.5 2.3-4.3 4.2-9.3 5.8-14.9.2-.6.6-.8 1.3-.6l8.1 2.7c.6.2.8.7.5 1.5-2 6.1-4.5 11.8-7.4 16.9 4.3 3.2 8.2 6.8 11.2 10.4.2.2.3.5.3.7 0 .3-.2.5-.4.7l-7 5.9c-.2.2-.5.3-.7.3-.3 0-.5-.1-.7-.4-2.6-3.3-5.4-6.2-8.5-9-5.9 7.3-12.9 12.9-20.9 16-.8.3-1.2.2-1.6-.2z"/><path d="m55.2 85.7c-.4-.2-.6-.4-.6-.7 0-.2.1-.4.3-.6l4.4-5.8c.4-.5.7-.6 1.3-.4 4.1 1.3 9.9 4.5 14.1 8.2.3.3.4.5.4.7s-.1.4-.3.6l-5.6 6.2c-.2.3-.5.4-.7.4s-.4-.1-.7-.3c-3.8-3.5-8.8-6.6-12.6-8.3zm3.6 32.7-2.5-8.1c-.2-.6.1-1.1.8-1.2 18-2.2 26.8-11.6 32.2-26.5.2-.4.4-.7.7-.7.2 0 .4.1.6.2l7 4.5c.4.4.6.8.4 1.4-5.6 16.1-17.2 28.3-38 31.2-.6.1-1.1-.2-1.2-.8z"/><path d="m113.4 120-5.7-7.6c-.2-.2-.3-.4-.3-.6 0-.4.3-.6.8-.7 7.1-1.2 13.2-3.8 17.9-8-3.6-2.1-7.5-4.2-11.2-5.9-1.3 1.3-2.6 2.3-4 3.2-.2.2-.4.2-.6.2-.3 0-.5-.1-.7-.3l-5.7-5c-.3-.2-.4-.5-.4-.7 0-.3.2-.5.5-.7 7.1-4.2 11.4-11.7 13.1-16.3.2-.5.5-.8 1.2-.8l28.3-.1c.7 0 1 .4.9 1.1-1.7 23.7-13.5 36.9-32.7 42.7-.6.2-1 0-1.4-.5zm18.8-24c1.8-3.1 3.2-6.6 3.9-10.5h-12.8c-.7 1.7-1.7 3.5-2.8 5.2 3.6 1.4 7.8 3.3 11.7 5.3z"/><path d="m154 102.1v-8.8c0-.6.4-1 1-1h40.4c.6 0 1 .4 1 1v8.9c0 .6-.4 1-1 1l-40.4-.1c-.6 0-1-.4-1-1z"/><path d="m241.1 73.6v1h9.9c.5 0 .8.3.8.8v4.6c0 .5-.3.8-.8.8h-9.9v1.6h7.1c.5 0 .8.3.8.8v12.6c0 .5-.3.8-.8.8h-18.3c-.2.5-.4 1-.6 1.4h22.7c.5 0 .8.3.8.8v4.1c0 .5-.3.8-.8.8l-8.1-.1c3 1.3 6.1 2.1 9.2 2.5.6.1.8.5.6 1.1l-2.7 6.2c-.2.5-.6.6-1.1.5-1.5-.5-3.1-1.3-4.7-2.2l-.2 2.7c-.7 6.5-3.7 8.1-14.8 7.6-.5 0-.8-.3-1-.7l-1.5-4c-4.1 3.2-10.1 4.5-16.2 4.9-.5.1-.8-.2-1-.6l-2.6-5.9c-.3-.6 0-.9.6-.9 4.3.1 9.2-.1 12.4-2h-6.5c-.5 0-.8-.3-.8-.8v-1.4c-2.3 1.2-4.7 2.2-7.2 2.8-.5.2-.8-.1-1.1-.5l-2.5-5.7c-.3-.5-.1-.9.6-1 3.1-.4 6.8-1.3 9.5-2.5l-8.4.2c-.5 0-.8-.3-.8-.8v-4.1c0-.5.3-.8.8-.8h14.8c.3-.5.5-.9.7-1.4h-11.7c-.5 0-.8-.3-.8-.8v-12.6c0-.5.3-.8.8-.8h6.8v-1.6h-9.5c-.5 0-.8-.3-.8-.8v-4.6c0-.5.3-.8.8-.8h9.5v-1c0-.5.3-.8.8-.8h7.5c.5 0 .8.3.8.8v1h7.8v-1c0-.5.3-.8.8-.8h7.5c.5-.2.8.1.8.6zm-1.7 14.6v-1.5h-22.4v1.5zm-22.4 3v1.6h22.4v-1.6zm6.6 14.8c0-.5.3-.8.8-.8l7.3.1c.5 0 .8.3.8.8 0 .4 0 .7-.1 1.1h5.1c-1.5-1.1-2.8-2.2-4.1-3.3h-9.8c-1.2 1.1-2.5 2.2-4.1 3.3h3.8c.2-.4.3-.8.3-1.2zm.5-25v1.6h7.8v-1.6zm5.7 34.4c4.9.1 6-.4 6.2-1.4.1-.3.1-.7.1-1h-4.6c-.5.9-1.1 1.7-1.7 2.4z"/><path d="m303.7 102h-17.3v1.7h18.4c.5 0 .8.3.8.8v5.1c0 .5-.3.8-.8.8l-14.1-.3c4.2 1.8 9.9 3 15.8 3.5.6.1.9.5.6 1.1l-2.8 6.7c-.2.5-.6.6-1.1.5-6-1.2-12.2-3.5-17-6.4l.2 6.1c0 .5-.3.8-.8.8h-7.9c-.5 0-.8-.3-.8-.8l.2-5.5c-4.9 3-10.8 5.1-16 5.9-.5.1-.8-.1-1-.6l-2.8-6.7c-.3-.6 0-1 .6-1.1 5.8-.5 11.8-1.8 15.7-3.5l-14.4.3c-.5 0-.8-.3-.8-.8v-5.1c0-.5.3-.8.8-.8h17.8v-1.7h-14.2c-.5 0-.8-.3-.8-.8v-9c-.5.5-1 1-1.5 1.5-.2.2-.4.3-.6.3s-.4-.2-.6-.5l-3.1-7.9c-.2-.5-.1-.8.4-1.1 3.8-2.8 7.4-7 9.7-11.2.2-.4.5-.6 1-.5l7.9.9c.6.1.9.5.6 1-.3.6-.7 1.2-1.2 1.8h5.2c.7-.9 1.4-2 1.8-2.8.3-.4.5-.6 1-.6l8.2.4c.6.1.9.5.6 1-.4.6-.9 1.3-1.4 2h13c.5 0 .8.3.8.8v4.4c0 .5-.3.8-.8.8h-14.3v1.5h12.6c.5 0 .8.3.8.8v2.8c0 .5-.3.8-.8.8h-12.6v1.6h12.6c.5 0 .8.3.8.8v2.8c0 .5-.3.8-.8.8h-12.6v1.6h15.1c.5 0 .8.3.8.8v4.2c0 .6-.3.9-.9 1zm-32.9-19.5v1.6h8.6v-1.6zm0 5.9v1.7h8.6v-1.7zm0 6v1.7h8.6v-1.7z"/><path d="m320.3 116.7c0-3.5 2.5-5.6 6-5.6s5.9 2.2 5.9 5.6-2.5 5.5-5.9 5.5-6-2.2-6-5.5zm1.5-10.4-.7-31.1c0-.6.3-1 1-1h8.2c.7 0 1 .4 1 1l-.7 31.1c0 .6-.4 1-1.1 1h-6.8c-.6 0-.9-.4-.9-1z"/></g></svg>