<svg enable-background="new 0 0 538 30" viewBox="0 0 538 30" xmlns="http://www.w3.org/2000/svg"><g fill="#fff"><path d="m6.4 27.1c-3.4 0-5.8-2.6-5.8-5.9 0-2.4 1.2-5 3.5-6.6 1.6-1 3.7-1.9 6.3-2 .3-1.7.4-3.3.5-4.3l-6.6-.1c-.4 0-.6-.2-.6-.5v-4c0-.4.2-.6.6-.6h11.9c.4 0 .6.2.6.5l.1 2.8c0 .2 0 .4-.1.7-.4 2.1-.8 4-1 5.8 1.5.2 3 .5 4.5.9.2-1.5.2-3.1.2-4.9 0-.4.2-.6.6-.6l4.3.5c.4 0 .5.3.5.6-.1 2-.2 4-.5 6 .9.4 1.8.8 2.6 1.2.3.2.4.4.3.8l-1.2 4.3c-.1.2-.2.4-.4.4-.1 0-.2-.1-.3-.1-.7-.4-1.4-.8-2.2-1.2-1.3 3.8-3.3 6.8-6.4 8.3-.3.2-.5.1-.8-.2l-3.3-3.2c-.1-.1-.2-.2-.2-.4s.1-.3.3-.4c2.7-1.2 4.5-3.3 5.5-6.4-1.5-.5-2.9-1-4.3-1.3-.8 3.5-1.7 6-3.8 7.9-1.6 1.4-3.2 2-4.8 2zm-1.2-6.6c0 .2 0 .4.1.6.2.5.5.8 1 .8 1.8 0 2.9-3.8 3.2-5.1-1.8.4-4.3 1.5-4.3 3.7z"/><path d="m31.1 26.1c2.4-6.7 6.5-17 8.7-23.4.1-.4.4-.5.7-.4l4.7 1.4c.4.1.5.4.3.7-1.4 3.1-3.2 7.1-4.4 10.2.8-.4 1.6-.7 2.5-.7 2 0 3.9 1.3 4.2 4.5.1.8.1 1.6.2 2.5.1 1.2.6 1.8 1.3 1.8.6 0 1.2-.4 1.7-1.3.7-1 1.2-3.5 1.5-6.3 0-.3.2-.5.4-.5.1 0 .2 0 .3.1l4.3 1.9c.3.1.5.4.4.7-.5 3.8-1.4 6.5-3 8.4-1.5 1.7-3.8 2.7-5.9 2.7-2.7 0-5.3-1.6-5.9-5.2-.1-.7-.1-1.8-.2-2.8 0-1-.5-1.4-1-1.4-1 0-2.4 1.3-3.5 4-.6 1.7-1.2 3.5-1.6 5.1-.1.4-.4.5-.7.4l-4.6-1.6c-.4-.2-.5-.5-.4-.8z"/><path d="m60.9 22.6c0-.1 0-.2.1-.4 2.2-3.5 4-7.2 5.4-11.3h-3.8c-.4 0-.6-.2-.6-.6v-3.7c0-.4.2-.6.6-.6h4.9c.2-1.1.5-2.2.6-3.4.1-.4.3-.5.6-.5l4.3.3c.4 0 .5.2.5.6-.2 1-.4 2-.6 2.9h3c.4 0 .6.2.6.6v3.8c0 .4-.2.6-.6.6h-4.2c-1.5 4.7-3.5 8.9-5.7 12.9-.1.3-.4.4-.7.3l-4-1.1c-.2-.1-.4-.2-.4-.4zm22.8 4.7c-.1 0-.3-.1-.4-.2-.7-.8-1.3-1.6-2.1-2.2-1 2.7-3.9 3.8-6.6 3.8-3.2 0-6.5-1.7-6.5-5.2 0-1.7.8-3.4 2.3-4.6 1.2-.9 2.7-1.3 4.4-1.3.6 0 1.1.1 1.7.2 0-1.5-.1-3.2 0-4.8 0-.4.2-.5.6-.5h3.9c.4 0 .6.2.6.6-.1 2-.1 4.3-.1 6.4 2.1 1 4 2.3 5.6 3.8.2.1.2.3.2.4s-.1.3-.2.4l-3.1 3.3c0-.2-.2-.1-.3-.1zm-9-5.9c-.8 0-2.1.3-2.1 1.4 0 .3.1.6.3.8.4.4 1 .5 1.6.5 1.6 0 2-.9 2.1-2.3-.6-.2-1.3-.4-1.9-.4zm3-11c-.4-.1-.5-.3-.4-.7l.9-3.5c.1-.3.3-.5.7-.5 3 .3 6.7 1 9 2.4.2.1.3.3.3.5 0 .1 0 .2-.1.3l-2.3 3.7c-.1.2-.3.3-.4.3s-.2-.1-.4-.2c-1.9-1.2-4.3-1.9-7.3-2.3z"/><path d="m97.6 18.7c0-3.7 2.3-7.5 5.8-9.3-3.4.1-7.6.3-11.2.4-.4 0-.6-.2-.6-.6l-.1-4.3c0-.4.2-.6.5-.6 6.3 0 17.1 0 23.7-.2.4 0 .6.2.6.5v4.4c0 .4-.2.6-.5.6-.9 0-1.7.1-2.5.2-3.7.6-9.8 4-9.8 8.1 0 2.6 2.8 4.7 9.4 4.6.4 0 .5.2.5.4v.1l-.8 4.7c-.1.4-.3.5-.6.5-10.5-.1-14.4-4.7-14.4-9.5zm13.8-.5c-.5-1.5-1.3-3.1-2.3-4.3-.1-.2-.2-.3-.2-.4s.1-.3.3-.4l1.8-.7c.3-.1.5-.1.8.2.9 1.1 2 2.9 2.6 4.4.1.3 0 .6-.3.7l-2 .8c-.4.2-.6.1-.7-.3zm4.1-1.6c-.5-1.4-1.5-3.1-2.3-4.2-.1-.1-.1-.2-.1-.4s.1-.3.4-.4l1.7-.7c.3-.1.6-.1.8.1 1 1.1 2.1 3 2.6 4.3.1.3 0 .6-.3.7l-1.9.8c-.5.3-.7.1-.9-.2z"/><path d="m147.8 17.6v3.6c0 .3-.2.5-.5.5l-6.8-.1c2.3 1 4.8 1.8 7.7 2.5.3.1.5.3.3.6l-1.9 4.1c-.1.3-.3.4-.6.3-3.1-1.1-6.4-2.6-9-4.5l.1 4.4c0 .3-.2.5-.5.5h-4.6c-.3 0-.5-.2-.5-.5l.1-4.3c-2.3 1.7-5.5 3.3-9 4.4-.3.1-.5 0-.6-.3l-1.9-4.1c-.2-.3 0-.5.3-.6 3-.6 5.8-1.5 8-2.5l-7 .1c-.3 0-.5-.2-.5-.5v-3.6c0-.3.2-.5.5-.5h10v-1h-3.3c-.3 0-.5-.2-.5-.5v-2.2c-1.5 1.3-3.6 2.5-5.2 3.2-.3.1-.5 0-.6-.3l-1.7-4c-.1-.3 0-.5.3-.6 1.6-.6 3.2-1.4 4.7-2.4-1.2-1.3-2.9-2.5-4.5-3.3-.2-.1-.3-.2-.3-.4 0-.1.1-.2.2-.3l2.7-3.2c.2-.2.4-.3.7-.2 1.3.6 2.7 1.5 3.8 2.6v-1c0-.3.2-.5.5-.5h2.5v-.1c.4-.5.7-1 .9-1.5.2-.2.3-.4.6-.3l4.9.3c.4 0 .5.2.3.6s-.4.7-.6 1h3.5c.3 0 .5.2.5.5v1.5c1.3-.8 2.7-2.1 3.6-3.1.1-.1.2-.2.4-.2.1 0 .2.1.3.2l3 2.8c.1.1.2.2.2.4 0 .1 0 .2-.1.3-1 1.3-2.8 2.9-4.3 3.9 1.3 1 2.8 1.9 4.2 2.6.2.1.3.2.3.3s0 .2-.1.3l-2.2 3.8c-.1.2-.4.3-.7.2-1.5-.9-3.2-2-4.5-3.3v2.4c0 .3-.2.5-.5.5h-3.3v1h10.1c.4 0 .6.1.6.5zm-20-10.5-1.5 1.9 1.5 3zm8.2 1.2v-1.5h-3.3v1.5zm-3.2 2.7v1.5h3.3v-1.5zm8.1.5 1.6-2.4-1.6-1.8z"/><path d="m163.4 28.8c-4.6 0-9-2.5-9.3-8.5-.2-4.1.3-11.5.5-17 0-.4.2-.6.6-.6l4.7.1c.4 0 .6.2.5.6-.2 5.6-.6 11.6-.5 15.6.1 3 1.9 4.2 4 4.2 1.6 0 3.4-.8 4.5-2 1.2-1.3 1.8-3 2.3-5.9.1-.3.2-.5.4-.5.1 0 .2 0 .3.1l4 2.6c.3.2.4.5.3.8-.7 2.5-1.4 4.2-2.8 6.2-1.8 2.7-5.7 4.3-9.5 4.3z"/><path d="m182 9.7v-3.8c0-.4.2-.6.6-.6h5.4l-.1-2.5c0-.4.2-.6.6-.6h4.4c.4 0 .6.2.6.5v2.5h3.7c.4 0 .6.2.6.6v3.9c0 .4-.2.6-.5.6h-3.8l-.1 4.1c.4.7.5 1.6.5 2.5 0 1.4-.5 3-1.4 4.3-.2.4-.3.8-.3 1.2 0 1.5 2.4 1.6 3.5 1.6 2.9 0 5.2-.8 5.2-4.1 0-1.3-.4-2.9-1.2-4.3-.1-.1-.1-.2-.1-.3 0-.2.2-.4.5-.4l4.8.1c.3 0 .5.1.6.5.8 1.9 1.2 3.8 1.2 5.6 0 7-5.8 8.1-11.4 8.1-2.4 0-4.7-.3-6.3-1-1.5-.6-2.3-2-2.4-3.6-1.2 0-2.3-.3-3.2-1.1-1.3-1.2-2.1-3-2.1-5 0-4 2.9-6.9 6.9-7v-1.1h-5.4c-.6-.1-.8-.3-.8-.7zm4.8 9.7c.3 0 .6-.1.8-.4.6-.6.9-2 .7-2.8-.1-.4-.4-.6-.7-.6-1.2 0-1.8 1.5-1.8 2.5 0 .6.3 1.3 1 1.3zm11.6-12.2c-.2-.1-.2-.3-.2-.4s.1-.2.2-.4l3-2.8c.1-.1.3-.2.4-.2s.2.1.4.1c2.4 1.6 4.9 3.9 6.4 6.1.1.1.1.2.1.4s-.1.3-.2.5l-3.4 3.2c-.1.1-.3.2-.4.2s-.3-.1-.4-.3c-1.7-2.7-3.9-4.9-5.9-6.4z"/><path d="m216.6 27.8-2.3-4.4c-.2-.4 0-.7.4-.7 12.1-2.1 14.2-8.6 15.1-12.3l-16.8.2c-.4 0-.6-.2-.6-.6v-4.3c0-.4.2-.6.6-.6h17v-.1c0-2.3 1.9-4.2 4.3-4.2s4.2 1.9 4.2 4.2c0 1.9-1.2 3.5-2.8 4-1.3 9.7-7.1 16.9-18.4 19.1-.3.1-.6 0-.7-.3zm19.5-22.8c0-1-.8-1.8-1.8-1.8s-1.8.8-1.8 1.8.8 1.8 1.8 1.8 1.8-.8 1.8-1.8z"/><path d="m242.6 26.5v-21.6c0-.4.2-.6.6-.6h22.3c.4 0 .6.2.6.6v21.6c0 .4-.2.6-.6.6h-22.3c-.4-.1-.6-.2-.6-.6zm17.6-17.1h-11.8v12.5h11.8z"/><path d="m277.4 28.4-3.3-4.3c-.1-.1-.1-.2-.1-.4s.1-.3.4-.4c8.2-1.3 14.3-6.5 15.8-14.6h-7.1c-1.3 3.3-4.2 6.8-7 8.5-.1.1-.2.1-.4.1s-.3-.1-.5-.2l-3.4-2.8c-.1-.1-.2-.3-.2-.4 0-.2.1-.3.3-.4 4-2.3 6.5-6.7 7.4-9.3.1-.3.3-.5.6-.5l8.7-.1c.3 0 .5.1.7.2l1.6.9c-.5-.8-1-1.5-1.5-2.1-.1-.1-.2-.3-.2-.4 0-.2.1-.3.3-.4l1.6-.7c.3-.1.5-.1.8.2 1.1 1.2 2.3 3.1 2.9 4.7.1.3 0 .6-.3.7l1.2.7c.3.2.4.4.3.8-1.9 11-8.3 17.2-18.1 20.2-.1.4-.3.3-.5 0zm19.3-21.5c-.2 0-.4-.1-.5-.4-.5-1.5-1.5-3.2-2.5-4.5-.1-.1-.2-.2-.2-.4s.1-.3.4-.4l1.5-.6c.3-.1.5-.1.8.2 1 1.1 2.2 3.1 2.8 4.6.1.3 0 .6-.3.8l-1.7.7s-.2.1-.3 0z"/><path d="m307.9 28.2-2.5-4.4c-.1-.1-.1-.2-.1-.3 0-.2.2-.4.5-.4 7.6-.2 12.8-3.2 13.7-7.5-4.8 0-11 .1-16.3.2-.4 0-.6-.2-.6-.6v-4.2c0-.4.2-.6.6-.6h22.3c.4 0 .6.2.6.6-.2 10.3-6.3 16.7-17.5 17.5-.4.1-.6 0-.7-.3zm-3.1-20.3v-4c0-.4.2-.6.6-.6h18c.4 0 .6.2.6.6v4c0 .4-.2.6-.6.6h-18c-.4-.1-.6-.3-.6-.6z"/><path d="m333.4 24.2c-.4 0-.6-.3-.5-.7l1.4-3.8c.1-.3.3-.4.6-.4 6 .1 14.6 1.3 20.3 3.7.3.1.5.4.3.8l-1.8 4.3c-.1.2-.2.4-.5.4-.1 0-.2 0-.3-.1-4.5-2.3-12.8-3.9-19.5-4.2zm1.7-16.1c-.3 0-.5-.1-.5-.4 0-.1 0-.1 0-.2l.8-3.6c.1-.3.3-.5.6-.5 5.2-.2 13.8.4 18.9 1.7.4.1.5.3.4.7l-1.1 4c-.1.4-.3.5-.7.4-5.5-1.6-12.2-2.1-18.4-2.1zm.5 7.9c-.4 0-.6-.2-.5-.7l1.2-3.8c.1-.3.3-.5.6-.5 4.4 0 11.5.7 16 2.2.4.1.5.4.4.7l-1.2 4.2c-.1.3-.2.4-.4.4-.1 0-.2 0-.3-.1-4.2-1.4-11.1-2.4-15.8-2.4z"/><path d="m362.8 8.5c-.2-.1-.3-.2-.3-.4 0-.1.1-.2.1-.4l2.5-3.3c.2-.3.4-.4.8-.2 2.3.8 5.6 2.5 8 4.7.1.2.2.3.2.4s-.1.2-.2.4l-3.2 3.5c-.1.1-.3.2-.4.2s-.2-.1-.4-.2c-2.1-2-4.9-3.8-7.1-4.7zm2 18.6-1.4-4.6c-.1-.4 0-.6.4-.7 10.3-1.2 15.3-6.6 18.3-15.1.1-.2.2-.4.4-.4.1 0 .2.1.3.1l4 2.6c.3.2.4.4.3.8-3.2 9.1-9.8 16.1-21.6 17.8-.4 0-.6-.2-.7-.5z"/><path d="m397.4 28.4-3.3-4.3c-.1-.1-.1-.2-.1-.4s.1-.3.4-.4c8.2-1.3 14.3-6.5 15.8-14.6h-7.1c-1.3 3.3-4.2 6.8-7 8.5-.1.1-.2.1-.4.1s-.3-.1-.5-.2l-3.4-2.8c-.2-.1-.2-.3-.2-.4 0-.2.1-.3.3-.4 4-2.3 6.5-6.7 7.4-9.3.1-.3.3-.5.6-.5l8.7-.1c.3 0 .5.1.7.2l1.6.9c-.5-.8-1-1.5-1.5-2.1-.1-.1-.2-.3-.2-.4 0-.2.1-.3.3-.4l1.6-.7c.3-.1.5-.1.8.2 1.1 1.2 2.3 3.1 2.9 4.7.1.3 0 .6-.3.7l1.2.7c.3.2.4.4.3.8-1.9 11-8.3 17.2-18.1 20.2-.1.4-.3.3-.5 0zm19.3-21.5c-.2 0-.4-.1-.5-.4-.5-1.5-1.5-3.2-2.5-4.5-.1-.1-.2-.2-.2-.4s.1-.3.4-.4l1.5-.6c.3-.1.5-.1.8.2 1 1.1 2.2 3.1 2.8 4.6.1.3 0 .6-.3.8l-1.7.7s-.2.1-.3 0z"/><path d="m442.1 3.3v18.4c0 .3-.2.5-.5.5h-2.8c-.3 0-.5-.2-.5-.5v-15.6l-1.3 3.1c-.1.3-.3.4-.6.3-.7-.3-1.7-.8-2.6-1.3v.4c0 .3-.2.5-.5.5h-6.7c-.3 0-.5-.2-.5-.5v-.5c-.9.6-1.8 1.2-2.8 1.7h13.4c.3 0 .5.2.5.5v8.7c0 .3-.2.5-.5.5h-10.3l-.2.9h11c.3 0 .5.2.5.5v7.3c0 .3-.2.5-.5.5h-11.5c-.3 0-.5-.2-.5-.5l.1-3.8c-.4 1.5-.9 2.9-1.4 3.9-.1.1-.2.2-.3.2s-.2 0-.3-.2l-3.3-3.2c-.1-.1-.2-.2-.2-.4 0-.1 0-.2.1-.3 1.4-2.7 2.2-5.9 2.1-10.2l-.1-3.9s0 0-.1 0l-.2.1s0 0-.1 0c-.3.1-.5 0-.6-.3l-1.2-4.3c-.1-.3 0-.5.3-.6 2.8-.8 5.3-2.4 6.7-3.8.2-.2.3-.3.6-.3h4.3c.2 0 .4.1.6.2 1.6 1.4 3.8 2.5 6 3.3v-1.4c0-.3.2-.5.5-.5h2.8c.4.1.6.2.6.6zm-15.3 13.4h5.6v-1.1h-5.6zm0-4v1h5.6v-1zm3-7.6c-.5.5-1 1-1.6 1.4h3.2c-.6-.4-1.2-.8-1.6-1.4zm3.1 20.3v-1.7h-2.9v1.7zm10.7-24.3h3.8c.3 0 .5.2.5.5v22.6c0 3.8-1.6 5.3-6.5 5.2-.3 0-.5-.2-.6-.4l-1.7-4.3s0-.1 0-.2c0-.2.2-.4.5-.4 3.1.1 3.5-.3 3.5-1.3v-21.2c0-.3.2-.4.5-.5z"/><path d="m479 24-1.4 4.3c-.1.3-.2.4-.5.4-2.8.2-6.6.3-9.8.3-1.9 0-3.5 0-4.7-.1-2.6-.2-4.9-.7-6.7-2.4-.4.5-2.5 2.6-3.1 2.6-.1 0-.3-.1-.4-.2l-2.5-4c-.2-.3-.1-.5.2-.6.9-.5 1.8-1 2.6-1.6v-5.9h-1.9c-.3 0-.5-.2-.5-.5v-4.1c0-.3.2-.5.5-.5h6.5c.3 0 .5.2.5.5v8.8c1.1 1.9 2.7 2.6 4.9 2.8 1.3.1 3 .2 5 .2 3.2 0 7-.2 10.9-.5.4-.1.6.1.4.5zm-14.7-21.8-.3.9h1.7v-1.5c0-.3.2-.5.5-.5h4.3c.3 0 .5.2.5.5v1.5h5.8c.3 0 .5.2.5.5v3.2c0 .3-.2.5-.5.5h-5.8v1.3h6.6c.3 0 .5.2.5.5v3.1c0 .3-.2.5-.5.5h-18.8c-.3 0-.5-.2-.5-.5v-3.1c0-.3.2-.5.5-.5h1.7l-2.8-1-2.9 2.1s-.2.1-.3.1c-.2 0-.3-.1-.4-.3-.8-1.7-2.1-3.6-3.5-4.9-.1-.1-.2-.2-.2-.3s.1-.2.2-.3l3.4-2.2c.1-.1.2-.1.4-.1.1 0 .2 0 .3.1 1.3 1.1 2.6 2.6 3.6 4.1.9-1.4 1.6-2.9 2-4.3.1-.3.3-.4.6-.4l3.3.5s.2.2.1.5zm12 20.3h-16.3c-.3 0-.5-.2-.5-.5v-8c0-.3.2-.5.5-.5h16.3c.3 0 .5.2.5.5v8c0 .3-.2.5-.5.5zm-14.4-13.9h3.7v-1.4h-2.9c-.2.5-.5 1-.8 1.4zm9.8 8.8h-7v1.3h7z"/><path d="m480.8 10.9v-7.2c0-.3.2-.5.5-.5h10v-1.6c0-.3.2-.5.5-.5h5.2c.3 0 .5.2.5.5v1.7h10.1c.3 0 .5.2.5.5v6c0 .3-.2.5-.5.5h-3.7l2.5.8c.3.1.4.3.4.6-.5 3.2-1.4 4.5-4.7 4.7-1.3.1-2.3.1-3.7 0-2.6-.1-3.9-.8-3.9-3.4v-3.7c0-.3.2-.5.5-.5h4.1c.3 0 .5.2.5.5v2.1c0 .3.1.5.5.5h.8c.6-.1.8-.5.9-1.8 0-.4.2-.5.6-.4l.3.1v-1.6h-12.4l3.1.8c.3.1.4.2.4.5-.9 3.5-3.4 6.7-7.9 7.8h20.2c.3 0 .5.2.5.5v3.8c0 .3-.2.5-.5.5h-8.8v1.8h10.6c.3 0 .5.2.5.5v4c0 .3-.2.5-.5.5h-27c-.3 0-.5-.2-.5-.5v-4c0-.3.2-.5.5-.5h10.4v-1.9h-8.6c-.3 0-.5-.2-.5-.5v-3.8c0-.3.2-.5.5-.5h1.1l-2.1-3.9c-.2-.3 0-.5.4-.6 4.4-.5 6.1-1.9 6.6-4.5h-2.7v2.8c0 .3-.2.5-.5.5h-4.3c-.2-.1-.4-.3-.4-.6z"/><path d="m523.9 2.3v11.2c0 .3-.2.5-.5.5h-6.7v14.8c0 .3-.2.5-.5.5h-4.2c-.3 0-.5-.2-.5-.5v-26.5c0-.3.2-.5.5-.5h11.4c.3 0 .5.2.5.5zm-4.7 4.6v-1.4h-2.6v1.4zm-2.6 2.3v1.4h2.6v-1.4zm20.8-6.9v21.6c0 3.8-1 5.4-6.4 5.4-.3 0-.4-.1-.5-.4l-.4-1.4h-11.4c-.3 0-.5-.2-.5-.5v-11.5c0-.3.2-.5.5-.5h11.5c.3 0 .5.2.5.5v8.7c1.6-.1 1.6-.4 1.6-1v-9.2h-6.8c-.3 0-.5-.2-.5-.5v-11.2c0-.3.2-.5.5-.5h11.6c.1 0 .3.2.3.5zm-11.4 17.6v-1.3h-3.4v1.3zm-3.4 2.5v1.4h3.4v-1.4zm9.6-15.5v-1.4h-2.7v1.4zm-2.6 2.3v1.4h2.7v-1.4c-.1 0-2.7 0-2.7 0z"/></g></svg>