<svg enable-background="new 0 0 390 94" viewBox="0 0 390 94" xmlns="http://www.w3.org/2000/svg"><g fill="#fff"><path d="m89.7 13.4c-1.7 0-2.9-1.3-2.9-3 0-1.2.6-2.5 1.8-3.3.8-.5 1.8-.9 3.1-1 .1-.8.2-1.6.3-2.2h-3.3c-.2 0-.3-.1-.3-.3v-2c0-.2.1-.3.3-.3h6c.2 0 .3.1.3.3v1.4.3c-.2 1.1-.4 2-.5 2.9.7.1 1.5.2 2.2.4.1-.8.1-1.5.1-2.4 0-.2.1-.3.3-.3l2.2.2c.2 0 .3.1.3.3 0 1-.1 2-.2 3 .4.2.9.4 1.3.6.2.1.2.2.2.4l-.6 2.2c0 .1-.1.2-.2.2s-.1 0-.2-.1c-.3-.2-.7-.4-1.1-.6-.6 1.9-1.6 3.4-3.2 4.2-.2.1-.3 0-.4-.1l-1.7-1.6c-.1-.1-.1-.1-.1-.2s.1-.2.2-.2c1.3-.6 2.2-1.7 2.7-3.2-.7-.2-1.5-.5-2.2-.6-.4 1.7-.9 3-1.9 4-1 .7-1.8 1-2.5 1zm-.6-3.3c0 .1 0 .2.1.3.1.2.3.4.5.4.9 0 1.4-1.9 1.6-2.6-1 .2-2.2.8-2.2 1.9z"/><path d="m102 12.9c1.2-3.3 3.2-8.5 4.4-11.7.1-.2.2-.2.4-.2l2.3.7c.2.1.2.2.2.4-.7 1.6-1.6 3.6-2.2 5.1.4-.2.8-.3 1.2-.3 1 0 1.9.7 2.1 2.2 0 .4.1.8.1 1.2 0 .6.3.9.6.9s.6-.2.9-.6c.3-.5.6-1.8.8-3.2 0-.2.1-.2.2-.2h.1l2.2.9c.2.1.2.2.2.4-.2 1.9-.7 3.2-1.5 4.2-.7.9-1.9 1.4-2.9 1.4-1.4 0-2.7-.8-3-2.6-.1-.3-.1-.9-.1-1.4s-.2-.7-.5-.7c-.5 0-1.2.7-1.7 2-.3.9-.6 1.8-.8 2.5-.1.2-.2.2-.4.2l-2.3-.8c-.3-.1-.4-.3-.3-.4z"/><path d="m116.9 11.1c0-.1 0-.1.1-.2 1.1-1.8 2-3.6 2.7-5.6h-1.9c-.2 0-.3-.1-.3-.3v-1.9c0-.2.1-.3.3-.3h2.5c.1-.5.2-1.1.3-1.7 0-.2.1-.3.3-.2l2.2.1c.2 0 .3.1.2.3-.1.5-.2 1-.3 1.5h1.5c.2 0 .3.1.3.3v1.9c0 .2-.1.3-.3.3h-2.1c-.8 2.3-1.8 4.5-2.9 6.5-.1.1-.2.2-.4.1l-2-.6c-.1 0-.2-.1-.2-.2zm11.4 2.4c-.1 0-.1 0-.2-.1-.3-.4-.7-.8-1.1-1.1-.5 1.3-2 1.9-3.3 1.9-1.6 0-3.2-.8-3.2-2.6 0-.9.4-1.7 1.2-2.3.6-.5 1.4-.7 2.2-.7.3 0 .6 0 .9.1 0-.8 0-1.6 0-2.4 0-.2.1-.3.3-.3h2c.2 0 .3.1.3.3v3.2c1 .5 2 1.1 2.8 1.9.1.1.1.1.1.2s0 .1-.1.2l-1.5 1.6c-.3 0-.4.1-.4.1zm-4.5-3c-.4 0-1.1.2-1.1.7 0 .1 0 .3.2.4.2.2.5.3.8.3.8 0 1-.4 1.1-1.2-.4-.1-.7-.2-1-.2zm1.5-5.5c-.2 0-.3-.2-.2-.3l.4-1.7c.1-.2.2-.2.3-.2 1.5.2 3.3.5 4.5 1.2.1.1.1.1.1.2v.2l-1.1 1.9c-.1.1-.1.2-.2.2s-.1 0-.2-.1c-.9-.8-2.1-1.2-3.6-1.4z"/><path d="m135.2 9.2c0-1.8 1.2-3.7 2.9-4.6-1.7.1-3.8.2-5.6.2-.2 0-.3-.1-.3-.3v-2.2c0-.2.1-.3.3-.3 3.2 0 8.5 0 11.9-.1.2 0 .3.1.3.3v2.1c0 .2-.1.3-.3.3-.4 0-.9 0-1.3.1-1.8.3-4.9 2-4.9 4 0 1.3 1.4 2.3 4.7 2.3.2 0 .3.1.3.2v.1l-.4 2.3c0 .2-.1.2-.3.2-5.3.1-7.3-2.2-7.3-4.6zm6.9-.3c-.3-.8-.7-1.5-1.1-2.2-.1-.1-.1-.1-.1-.2s.1-.2.2-.2l.9-.3c.1-.1.3-.1.4.1.5.5 1 1.5 1.3 2.2.1.2 0 .3-.2.4l-1 .4c-.2.1-.3 0-.4-.2zm2.1-.8c-.3-.7-.8-1.5-1.2-2.1 0-.1-.1-.1-.1-.2s.1-.2.2-.2l.8-.3c.1-.1.3-.1.4.1.5.5 1.1 1.5 1.3 2.2.1.2 0 .3-.2.4l-.9.4c-.1 0-.2-.1-.3-.3z"/><path d="m160.3 8.6v1.8c0 .1-.1.2-.2.2l-3.4-.1c1.1.5 2.4.9 3.9 1.2.2 0 .2.1.1.3l-1 2.1c-.1.1-.2.2-.3.1-1.6-.5-3.2-1.3-4.5-2.2l.1 2.2c0 .1-.1.2-.2.2h-2.3c-.1 0-.2-.1-.2-.2l.1-2.1c-1.1.9-2.8 1.6-4.5 2.2-.1 0-.2 0-.3-.1l-.9-2.1c-.1-.2 0-.3.1-.3 1.5-.3 2.9-.7 4-1.3l-3.5.1c-.1 0-.2-.1-.2-.2v-1.8c0-.1.1-.2.2-.2h5v-.6h-1.6c-.1 0-.2-.1-.2-.2v-1.1c-.8.7-1.8 1.2-2.6 1.6-.1.1-.3 0-.3-.1l-.9-2c-.1-.2 0-.2.1-.3.8-.3 1.6-.7 2.3-1.2-.6-.7-1.4-1.3-2.2-1.7-.1 0-.1-.1-.1-.2 0 0 0-.1.1-.2l1.4-1.6c.1-.1.2-.1.3-.1.7.3 1.4.8 1.9 1.3v-.4c0-.1.1-.2.2-.2h1.2c.2-.2.4-.5.5-.8.1-.1.1-.2.3-.2l2.4.2c.2 0 .2.1.2.3s-.2.4-.3.5h1.8c.1 0 .2.1.2.2v.8c.7-.4 1.4-1 1.8-1.5.1-.1.1-.1.2-.1 0 0 .1 0 .1.1l1.5 1.4c.1.1.1.1.1.2v.1c-.5.7-1.4 1.5-2.2 2 .6.5 1.4.9 2.1 1.3.1 0 .1.1.1.2v.2l-1.1 1.7c-.1.1-.2.1-.3.1-.8-.4-1.6-1-2.3-1.6v1.2c0 .2-.1.2-.2.2h-1.8v.5h5.1c.2 0 .3 0 .2.2zm-9.9-5.2-.8.9.8 1.5zm4.1.6v-.8h-1.6v.8zm-1.7 1.3v.7h1.6v-.7zm4.1.3.8-1.2-.8-.9z"/><path d="m168.2 14.2c-2.3 0-4.5-1.2-4.6-4.3-.1-2.1.1-5.7.2-8.5 0-.2.1-.3.3-.3l2.4.1c.2 0 .3.1.3.3-.2 2.8-.4 5.8-.3 7.8 0 1.5 1 2.1 2 2.1.8 0 1.7-.4 2.3-1s.9-1.5 1.2-2.9c0-.2.1-.2.2-.2 0 0 .1 0 .2.1l2 1.3c.1.1.2.2.1.4-.3 1.2-.7 2.1-1.4 3.1-1.1 1.2-3 2-4.9 2z"/><path d="m177.4 4.7v-1.9c0-.2.1-.3.3-.3h2.7v-1.3c0-.2.1-.3.3-.3h2.2c.2 0 .3.1.3.3v1.3h1.8c.2 0 .3.1.3.3v1.9c0 .2-.1.3-.3.3h-1.9v2c.2.4.3.8.3 1.3 0 .7-.2 1.5-.7 2.2-.1.2-.1.4-.1.6 0 .7 1.2.8 1.7.8 1.4 0 2.6-.4 2.6-2 0-.7-.2-1.4-.6-2.2 0-.1 0-.1 0-.2s.1-.2.2-.2h2.4c.2 0 .2.1.3.2.4.9.6 1.9.6 2.8 0 3.5-2.9 4-5.7 4-1.2 0-2.4-.1-3.2-.5-.8-.3-1.2-1-1.2-1.8-.6 0-1.1-.2-1.6-.6-.7-.6-1-1.5-1-2.5 0-2 1.5-3.5 3.4-3.5v-.5h-2.7c-.3.1-.4 0-.4-.2zm2.5 4.8c.1 0 .3-.1.4-.2.3-.3.4-1 .4-1.4 0-.2-.2-.3-.4-.3-.6 0-.9.7-.9 1.2 0 .4.1.7.5.7zm5.8-6.1c-.1-.1-.1-.1-.1-.2s0-.1.1-.2l1.5-1.4c.1-.1.1-.1.2-.1s.1 0 .2.1c1.2.8 2.4 1.9 3.2 3 0 .1.1.1.1.2s0 .2-.1.2l-1.8 1.6c-.1.1-.1.1-.2.1s-.1-.1-.2-.2c-.9-1.2-2-2.3-2.9-3.1z"/><path d="m194.7 13.7-1.2-2.2c-.1-.2 0-.3.2-.4 6-1.1 7.1-4.3 7.5-6.2l-8.2.2c-.2 0-.3-.1-.3-.3v-2.1c0-.2.1-.3.3-.3h8.5c0-1.2.9-2.1 2.1-2.1s2.1 1 2.1 2.1c0 .9-.6 1.7-1.4 2-.7 4.9-3.5 8.4-9.2 9.6-.2-.1-.3-.1-.4-.3zm9.8-11.4c0-.5-.4-.9-.9-.9s-.9.4-.9.9.4.9.9.9.9-.4.9-.9z"/><path d="m207.7 13.1v-10.8c0-.2.1-.3.3-.3h11.1c.2 0 .3.1.3.3v10.8c0 .2-.1.3-.3.3h-11.1c-.2-.1-.3-.1-.3-.3zm8.8-8.6h-5.9v6.2h5.9z"/><path d="m225.1 14-1.6-2.2c0-.1-.1-.1-.1-.2s.1-.1.2-.2c4.1-.7 7.1-3.2 7.9-7.3h-3.5c-.7 1.6-2.1 3.4-3.5 4.3-.1 0-.1.1-.2.1s-.1 0-.2-.1l-1.7-1.4c-.1-.1-.1-.1-.1-.2s.1-.2.1-.2c2-1.2 3.2-3.3 3.7-4.6.1-.1.1-.2.3-.2h4.4c.1 0 .2 0 .4.1l.8.4c-.2-.4-.5-.7-.8-1-.1-.1-.1-.1-.1-.2s.1-.2.2-.2l.8-.3c.1-.1.3 0 .4.1.6.6 1.1 1.6 1.5 2.4.1.2 0 .3-.1.4l.6.3c.1.1.2.2.2.4-1 5.5-4.1 8.6-9 10.1-.4-.1-.5-.1-.6-.3zm9.7-10.7c-.1 0-.2-.1-.2-.2-.3-.7-.8-1.6-1.2-2.2 0-.1-.1-.1-.1-.2s.1-.2.2-.2l.8-.3c.1-.1.3 0 .4.1.5.6 1.1 1.6 1.4 2.3.1.2 0 .3-.2.4l-.9.4c-.1-.1-.2-.1-.2-.1z"/><path d="m240.4 13.9-1.3-2.2c0-.1 0-.1 0-.1 0-.1.1-.2.2-.2 3.8-.1 6.4-1.6 6.9-3.8-2.4 0-5.5.1-8.2.1-.2 0-.3-.1-.3-.3v-2c0-.2.1-.3.3-.3h11.1c.2 0 .3.1.3.3-.1 5.2-3.1 8.3-8.7 8.7-.1 0-.2 0-.3-.2zm-1.6-10.1v-2c0-.2.1-.3.3-.3h9c.2 0 .3.1.3.3v2c0 .2-.1.3-.3.3h-9c-.2-.1-.3-.2-.3-.3z"/><path d="m253.1 11.9c-.2 0-.3-.1-.2-.3l.7-1.9c.1-.1.2-.2.3-.2 3 0 7.3.6 10.2 1.9.2.1.2.2.1.4l-.9 2.2c0 .1-.1.2-.2.2 0 0-.1 0-.1-.1-2.3-1.2-6.5-2-9.9-2.2zm.9-8c-.1 0-.2-.1-.2-.2v-.1l.4-1.8c0-.2.1-.2.3-.2 2.6-.1 6.9.2 9.4.9.2 0 .2.2.2.3l-.5 2c0 .2-.2.2-.3.2-2.9-.9-6.2-1.1-9.3-1.1zm.3 3.9c-.2 0-.3-.1-.2-.3l.6-1.9c0-.2.1-.2.3-.2 2.2 0 5.8.4 8 1.1.2.1.2.2.2.4l-.6 2.1c0 .1-.1.2-.2.2h-.1c-2.3-.9-5.7-1.4-8-1.4z"/><path d="m267.8 4.1c-.1 0-.2-.1-.2-.2 0 0 0-.1.1-.2l1.3-1.7c.1-.1.2-.2.4-.1 1.1.4 2.8 1.3 4 2.3.1.1.1.1.1.2s0 .1-.1.2l-1.6 1.8c-.1.1-.1.1-.2.1s-.1 0-.2-.1c-1.1-1-2.5-1.9-3.6-2.3zm1 9.3-.7-2.3c-.1-.2 0-.3.2-.3 5.1-.6 7.6-3.3 9.2-7.5 0-.1.1-.2.2-.2s.1 0 .2.1l2 1.3c.1.1.2.2.1.4-1.6 4.6-4.9 8-10.8 8.9-.2-.2-.3-.3-.4-.4z"/><path d="m285.1 14-1.6-2.2c0-.1-.1-.1-.1-.2s.1-.1.2-.2c4.1-.7 7.1-3.2 7.9-7.3h-3.5c-.7 1.6-2.1 3.4-3.5 4.3-.1 0-.1.1-.2.1s-.1 0-.2-.1l-1.7-1.4c-.1-.1-.1-.1-.1-.2s.1-.2.2-.2c2-1.2 3.2-3.3 3.7-4.6.1-.1.2-.2.3-.2h4.4c.1 0 .2 0 .4.1l.8.4c-.2-.4-.5-.7-.8-1-.1-.1-.1-.1-.1-.2s.1-.2.2-.2l.8-.3c.1-.1.3 0 .4.1.6.6 1.1 1.6 1.5 2.4.1.2 0 .3-.1.4l.6.3c.2.1.2.2.2.4-1 5.5-4.2 8.6-9 10.1-.5-.1-.6-.1-.7-.3zm9.7-10.7c-.1 0-.2-.1-.2-.2-.3-.7-.8-1.6-1.2-2.2 0-.1-.1-.1-.1-.2s.1-.2.2-.2l.8-.3c.1-.1.3 0 .4.1.5.6 1.1 1.6 1.4 2.3.1.2 0 .3-.2.4l-.9.4c-.1-.1-.2-.1-.2-.1z"/><path d="m307.5 1.5v9.2c0 .1-.1.2-.2.2h-1.4c-.1 0-.2-.1-.2-.2v-7.8l-.7 1.5c-.1.2-.2.2-.3.1-.4-.2-.8-.4-1.3-.7v.2c0 .2-.1.2-.2.2h-3.3c-.1 0-.2-.1-.2-.2v-.1c-.5.3-.9.6-1.4.8h6.7c.2 0 .2.1.2.2v4.4c0 .1-.1.2-.2.2h-5.2l-.1.5h5.5c.2 0 .2.1.2.2v3.8c0 .1-.1.2-.2.2h-5.7c-.1 0-.2-.1-.2-.2v-1.9c-.2.7-.5 1.5-.7 1.9 0 .1-.1.1-.2.1 0 0-.1 0-.2-.1l-1.7-1.6c-.1-.1-.1-.1-.1-.2v-.1c.7-1.4 1.1-3 1.1-5.1v-2h-.1c-.2.1-.3 0-.3-.2l-.6-2.2c0-.2 0-.2.2-.3 1.4-.4 2.7-1.2 3.4-1.9.1-.1.2-.1.3-.1h2.2c.1 0 .2 0 .3.1.8.7 1.9 1.3 3 1.6v-.6c0-.1.1-.2.2-.2h1.4c-.1 0 0 .1 0 .3zm-7.7 6.7h2.8v-.6h-2.8zm.1-2v.5h2.8v-.5zm1.4-3.8c-.2.2-.5.5-.8.7h1.6c-.2-.2-.5-.4-.8-.7zm1.6 10.1v-.8h-1.5v.8zm5.3-12.1h1.9c.2 0 .2.1.2.2v11.3c0 1.9-.8 2.6-3.2 2.6-.1 0-.2-.1-.3-.2l-.8-2.1v-.1c0-.1.1-.2.2-.2 1.5.1 1.7-.1 1.7-.6v-10.7c.1-.1.2-.2.3-.2z"/><path d="m326 11.8-.7 2.1c0 .1-.1.2-.2.2-1.4.1-3.3.2-4.9.2-.9 0-1.8 0-2.4-.1-1.3-.1-2.5-.4-3.4-1.2-.2.2-1.3 1.3-1.5 1.3-.1 0-.1 0-.2-.1l-1.2-2c-.1-.1 0-.2.1-.3.5-.2.9-.5 1.3-.8v-3h-1c-.2 0-.2-.1-.2-.2v-2c0-.2.1-.2.2-.2h3.2c.1 0 .2.1.2.2v4.4c.5 1 1.3 1.3 2.4 1.4.7.1 1.5.1 2.5.1 1.6 0 3.5-.1 5.5-.3.2 0 .3.1.3.3zm-7.4-10.9-.1.5h.8v-.8c0-.2.1-.2.2-.2h2.2c.1 0 .2.1.2.2v.8h2.9c.1 0 .2.1.2.2v1.6c0 .2-.1.2-.2.2h-2.9v.6h3.3c.1 0 .2.1.2.2v1.5c0 .2-.1.2-.2.2h-9.4c-.1 0-.2-.1-.2-.2v-1.3c0-.2.1-.2.2-.2h.8l-1.4-.5-1.5 1s-.1.1-.2.1-.1-.1-.2-.2c-.4-.9-1.1-1.8-1.8-2.4-.1-.1-.1-.1-.1-.2s0-.1.1-.2l1.7-1.1c.1 0 .1-.1.2-.1 0 0 .1 0 .1.1.7.5 1.3 1.3 1.8 2.1.5-.7.8-1.5 1-2.1 0-.1.1-.2.3-.2l1.6.2c.4 0 .4.1.4.2zm6 10.2h-8.2c-.1 0-.2-.1-.2-.2v-4c0-.2.1-.2.2-.2h8.2c.1 0 .2.1.2.2v4c.1.1 0 .2-.2.2zm-7.2-7h1.9v-.7h-1.4c-.2.3-.4.5-.5.7zm4.9 4.4h-3.5v.6h3.5z"/><path d="m326.9 5.3v-3.6c0-.1.1-.2.2-.2h5v-.9c0-.2.1-.2.2-.2h2.6c.1 0 .2.1.2.2v.8h5c.2 0 .2.1.2.2v3c0 .2-.1.2-.2.2h-1.8l1.3.4c.1 0 .2.2.2.3-.2 1.6-.7 2.3-2.3 2.3-.6 0-1.1 0-1.9 0-1.3-.1-1.9-.4-1.9-1.7v-1.6c0-.2.1-.2.2-.2h2c.2 0 .2.1.2.2v1c0 .2 0 .2.3.3h.4c.3 0 .4-.3.5-.9 0-.2.1-.3.3-.2l.2.1v-.9h-6.2l1.6.4c.1 0 .2.1.2.2-.4 1.7-1.7 3.3-4 3.9h10.1c.2 0 .2.1.2.2v1.9c0 .1-.1.2-.2.2h-4.4v.9h5.3c.1 0 .2.1.2.2v2c0 .1-.1.2-.2.2h-13.5c-.2 0-.2-.1-.2-.2v-2c0-.1.1-.2.2-.2h5.2v-.9h-4.3c-.1 0-.2-.1-.2-.2v-1.8c0-.1.1-.2.2-.2h.6l-1-1.9c-.1-.2 0-.3.2-.3 2.2-.3 3-.9 3.3-2.3h-1.3v1.4c0 .2-.1.2-.2.2h-2.2c-.2-.1-.3-.2-.3-.3z"/><path d="m348.4 1v5.6c0 .2-.1.2-.2.2h-3.3v7.4c0 .1-.1.2-.2.2h-2.1c-.1 0-.2-.1-.2-.2v-13.2c0-.1.1-.2.2-.2h5.7c0-.1.1 0 .1.2zm-2.3 2.3v-.7h-1.3v.7zm-1.4 1.1v.7h1.3v-.7zm10.4-3.4v10.8c0 1.9-.5 2.7-3.2 2.7-.1 0-.2-.1-.3-.2l-.2-.7h-5.7c-.2 0-.2-.1-.2-.2v-5.8c0-.2.1-.2.2-.2h5.8c.1 0 .2.1.2.2v4.4c.8 0 .8-.2.8-.5v-4.7h-3.4c-.1 0-.2-.1-.2-.2v-5.6c0-.1.1-.2.2-.2h5.8c.2-.1.2 0 .2.2zm-5.7 8.8v-.7h-1.7v.7zm-1.6 1.2v.7h1.7v-.7zm4.8-7.7v-.7h-1.3v.7zm-1.4 1.1v.7h1.3v-.7z"/></g><path d="m264.4 28.6c0 1.1-.9 2-2 2s-2-.9-2-2 .9-2 2-2 2 1 2 2z" fill="#f6de68"/><path d="m301.1 28.6c0 1.1-.9 2-2 2s-2-.9-2-2 .9-2 2-2 2 1 2 2z" fill="#f6de68"/><path d="m337.8 28.6c0 1.1-.9 2-2 2s-2-.9-2-2 .9-2 2-2 2 1 2 2z" fill="#f6de68"/><path d="m374.5 28.6c0 1.1-.9 2-2 2s-2-.9-2-2 .9-2 2-2 2 1 2 2z" fill="#f6de68"/><path d="m14.7 74.5h107.5c5.4 0 9.7 4.3 9.7 9.7s-4.3 9.7-9.7 9.7h-107.5c-5.4 0-9.7-4.3-9.7-9.7s4.3-9.7 9.7-9.7z" fill="#7e3967"/><path d="m28 51.4h-11.4v-7.6c0-2.2-.1-3.6-.4-4.1-.2-.5-.8-.8-1.6-.8-.9 0-1.5.3-1.8 1-.2.7-.4 2.1-.4 4.3v20.3c0 2.1.1 3.5.4 4.2s.8 1 1.7 1 1.4-.3 1.7-1 .4-2.2.4-4.6v-5.5h11.4v1.7c0 4.5-.3 7.8-1 9.6-.6 1.9-2.1 3.6-4.2 5-2.2 1.4-4.9 2.1-8.1 2.1s-6.1-.6-8.2-1.8-3.6-2.9-4.3-5-1.1-5.3-1.1-9.6v-12.8c0-3.2.1-5.5.3-7.1s.9-3.1 1.9-4.6c1.1-1.5 2.6-2.6 4.5-3.5s4.1-1.3 6.6-1.3c3.4 0 6.1.6 8.3 1.9s3.6 2.9 4.3 4.8 1 5 1 9z" fill="#fff"/><path d="m14.7 78c-3.5 0-6.4-.7-8.7-1.9-2.4-1.3-4-3.2-4.8-5.6-.7-2.3-1.1-5.5-1.1-10v-12.8c0-3.2.1-5.6.3-7.2.2-1.7.9-3.4 2.1-5s2.8-2.9 4.9-3.8c2-.9 4.4-1.3 7-1.3 3.5 0 6.5.7 8.8 2.1 2.4 1.4 4 3.2 4.7 5.4.7 2.1 1.1 5.1 1.1 9.4v5.2h-13.4v-8.6c0-2.9-.2-3.6-.3-3.7s-.3-.2-.7-.2c-.7 0-.8.2-.9.3-.1.3-.3 1.2-.3 4v20.3c0 2.6.2 3.5.3 3.8.1.1.1.3.8.3.6 0 .7-.2.7-.3.1-.2.3-1.1.3-4.2v-6.5h13.5v2.7c0 4.7-.3 7.9-1 10s-2.3 4-4.6 5.5c-2.4 1.3-5.3 2.1-8.7 2.1zm-.3-45.6c-2.3 0-4.4.4-6.2 1.2-1.7.8-3.1 1.8-4.1 3.1s-1.6 2.7-1.8 4.1c-.2 1.5-.3 3.9-.3 7v12.8c0 4.2.3 7.3 1 9.3.6 1.9 1.9 3.4 3.8 4.5 2 1.1 4.6 1.7 7.8 1.7s5.5-.7 7.6-2c2-1.3 3.3-2.8 3.8-4.5.6-1.8.9-4.9.9-9.3v-.7h-9.4v4.4c0 3.4-.3 4.5-.5 5-.2.6-.9 1.6-2.6 1.6s-2.4-1-2.6-1.6c-.2-.5-.4-1.5-.4-4.5v-20.4c0-3.2.2-4.2.4-4.7.2-.6.9-1.7 2.7-1.7 1.6 0 2.3.9 2.5 1.4s.5 1.4.5 4.5v6.6h9.5v-3.2c0-4-.3-6.9-1-8.7-.6-1.7-1.9-3.2-3.9-4.3-2-1-4.6-1.6-7.7-1.6z" fill="#231815"/><path d="m56.5 52.8v8.8c0 3.2-.2 5.6-.5 7.1s-1 2.9-2.1 4.2-2.4 2.3-4.1 2.9-3.6.9-5.8.9c-2.4 0-4.5-.3-6.1-.8-1.7-.5-3-1.3-3.9-2.4s-1.6-2.4-2-3.9-.6-3.8-.6-6.9v-9.2c0-3.3.4-5.9 1.1-7.8s2-3.4 3.9-4.5 4.3-1.7 7.2-1.7c2.5 0 4.6.4 6.3 1.1s3.1 1.7 4.1 2.8 1.6 2.4 2 3.6.5 3.2.5 5.8zm-10.9-2.7c0-1.8-.1-3-.3-3.5s-.6-.7-1.3-.7-1.1.2-1.3.7-.3 1.6-.3 3.5v16.2c0 1.7.1 2.8.3 3.3s.6.8 1.3.8 1.1-.2 1.3-.7.3-1.5.3-3z" fill="#fff"/><path d="m44.1 77.7c-2.5 0-4.7-.3-6.4-.8-1.8-.6-3.3-1.5-4.4-2.7-1-1.2-1.8-2.6-2.2-4.3-.4-1.6-.6-3.9-.6-7.1v-9.2c0-3.5.4-6.2 1.1-8.2.8-2.1 2.2-3.8 4.3-5 2-1.2 4.6-1.8 7.7-1.8 2.6 0 4.8.4 6.7 1.2s3.4 1.8 4.5 3.1c1 1.3 1.8 2.6 2.2 4 .4 1.3.6 3.3.6 6v8.8c0 3.3-.2 5.7-.5 7.3-.4 1.7-1.1 3.2-2.3 4.6-1.3 1.4-2.8 2.4-4.6 3.1s-3.8 1-6.1 1zm-.5-37.2c-2.7 0-5 .5-6.7 1.6-1.7 1-2.8 2.3-3.5 4-.7 1.8-1 4.3-1 7.5v9.2c0 3 .2 5.2.6 6.6s1 2.5 1.8 3.5c.8.9 2 1.6 3.5 2.1 1.6.5 3.5.8 5.8.8 2 0 3.8-.3 5.4-.9 1.5-.6 2.7-1.4 3.7-2.6s1.6-2.5 1.9-3.8c.3-1.4.5-3.8.5-6.9v-8.8c0-2.4-.2-4.3-.5-5.4s-.9-2.2-1.8-3.3c-.8-1-2.1-1.9-3.7-2.6-1.7-.6-3.7-1-6-1zm.4 30.9c-1 0-1.8-.5-2.2-1.4-.2-.4-.4-1.3-.4-3.7v-16.2c0-2.6.2-3.5.4-3.9.2-.5.8-1.3 2.2-1.3s2 .8 2.2 1.3c.2.4.4 1.2.4 3.9v16.5c0 2.2-.2 3-.4 3.4-.2.6-.8 1.4-2.2 1.4zm0-24.5c-.3 0-.4.1-.4.1 0 .1-.2.6-.2 3.1v16.2c0 2.2.2 2.8.2 2.9s.1.2.3.2c.3 0 .4-.1.4-.1 0-.1.2-.7.2-2.6v-16.6c0-2.4-.2-3-.2-3.1.1 0 0-.1-.3-.1z" fill="#231815"/><path d="m85 32.3v43.8h-11v-2.6c-1.1 1.1-2.2 1.9-3.3 2.4s-2.4.8-3.6.8c-1.7 0-3.2-.4-4.4-1.3s-2-1.9-2.4-3.1-.5-3.1-.5-5.7v-16.8c0-2.8.2-4.7.5-5.9s1.2-2.2 2.4-3c1.3-.9 2.8-1.3 4.5-1.3 1.3 0 2.6.2 3.7.7s2.2 1.2 3.1 2.2v-10.2zm-11 16.9c0-1.3-.1-2.2-.3-2.7s-.7-.7-1.3-.7-1.1.2-1.3.6-.3 1.3-.3 2.7v17.6c0 1.5.1 2.4.3 2.9s.6.7 1.2.7c.7 0 1.2-.3 1.4-.8s.3-1.8.3-3.8z" fill="#fff"/><path d="m67.1 77.7c-1.9 0-3.6-.5-5-1.5s-2.3-2.2-2.8-3.6c-.4-1.3-.6-3.2-.6-6v-16.8c0-2.9.2-4.9.6-6.2.4-1.4 1.4-2.6 2.8-3.6s3.1-1.5 5.1-1.5c1.5 0 2.9.3 4.1.8.6.2 1.1.6 1.7.9v-9h13v45.8h-13v-1.4c-.6.4-1.2.8-1.9 1.1-1.2.7-2.6 1-4 1zm.1-37.2c-1.6 0-2.8.4-4 1.1-1.1.7-1.8 1.6-2 2.5-.3 1-.5 2.9-.5 5.6v16.8c0 2.5.2 4.4.5 5.4s1 1.8 2 2.6c1.1.8 2.3 1.2 3.8 1.2 1.1 0 2.2-.2 3.2-.7s2.1-1.2 3-2.2l1.8-1.8v4.1h9v-41.8h-9v11.7l-1.7-1.8c-.8-.9-1.7-1.5-2.7-2s-2.1-.6-3.4-.7zm5.1 30.9c-1.3 0-1.9-.8-2.2-1.3-.3-.6-.4-1.6-.4-3.3v-17.6c0-2.1.2-2.8.5-3.2.3-.5.9-1.1 2.2-1.1 1.4 0 2 .8 2.2 1.2.3.6.4 1.6.4 3.1v16.6c0 2.8-.2 3.7-.4 4.2-.2.6-.9 1.4-2.3 1.4zm.1-24.5c-.2 0-.4 0-.4.1 0 0-.2.5-.2 2.2v17.6c0 1.8.2 2.3.2 2.5 0 .1.1.1.3.1.4 0 .5-.1.5-.2s.3-.7.3-3.4v-16.6c0-1.6-.2-2.1-.2-2.2-.1-.1-.4-.1-.5-.1z" fill="#231815"/><path d="m113.6 58.8h-14.1v7.8c0 1.6.1 2.7.3 3.1.2.5.7.7 1.3.7.8 0 1.4-.3 1.7-.9s.4-1.8.4-3.6v-4.7h10.4v2.7c0 2.2-.1 3.9-.4 5.1s-.9 2.5-2 3.8-2.3 2.4-3.9 3c-1.6.7-3.6 1-5.9 1s-4.3-.3-6.1-1-3.1-1.6-4.1-2.8-1.7-2.4-2-3.8c-.4-1.4-.6-3.4-.6-6.1v-10.5c0-3.1.4-5.6 1.3-7.4.8-1.8 2.2-3.2 4.2-4.2 1.9-1 4.2-1.5 6.7-1.5 3.1 0 5.6.6 7.6 1.7 2 1.2 3.4 2.7 4.2 4.6s1.2 4.6 1.2 8.1zm-10.9-5.9v-2.6c0-1.9-.1-3.1-.3-3.6s-.6-.8-1.2-.8c-.8 0-1.2.2-1.4.7s-.3 1.7-.3 3.7v2.6z" fill="#fff"/><path d="m101.4 77.7c-2.4 0-4.6-.4-6.5-1.1s-3.4-1.8-4.5-3c-1.1-1.3-1.8-2.7-2.2-4.2s-.6-3.6-.6-6.4v-10.4c0-3.3.5-5.9 1.4-7.8.9-2 2.5-3.6 4.6-4.6s4.4-1.5 7.1-1.5c3.2 0 5.9.6 8.1 1.9s3.7 3 4.6 5.1 1.3 4.8 1.3 8.5v5.8h-14.2v6.8c0 2.1.2 2.6.2 2.7s.1.2.5.2c.6 0 .7-.2.8-.3.1-.3.3-1.1.3-3.2v-5.7h12.4v3.7c0 2.3-.2 4.1-.4 5.3-.3 1.3-1 2.7-2.1 4.2s-2.6 2.6-4.3 3.4c-1.9.3-4 .6-6.5.6zm-.8-37.2c-2.3 0-4.4.5-6.2 1.3-1.7.9-2.9 2.1-3.7 3.7-.8 1.7-1.2 4-1.2 7v10.5c0 2.6.2 4.5.5 5.8.3 1.2 1 2.4 1.8 3.5.9 1 2.1 1.8 3.7 2.5 1.7.6 3.6.9 5.8.9s4.1-.3 5.5-.9 2.6-1.5 3.5-2.7 1.5-2.4 1.8-3.4c.3-1.1.4-2.8.4-4.9v-1.7h-8.4v3.7c0 2-.2 3.2-.5 4-.3.6-.9 1.5-2.6 1.5-1.4 0-2-.8-2.2-1.3-.2-.4-.5-1.2-.5-3.6v-8.8h14.2v-3.6c0-3.3-.4-5.9-1.1-7.7-.7-1.7-2-3.1-3.8-4.2-1.7-1-4.1-1.6-7-1.6zm3.1 13.4h-5.2v-3.6c0-2.8.2-3.7.3-4.1.2-.5.8-1.3 2.3-1.3 1 0 1.8.5 2.2 1.5.2.4.4 1.3.4 3.9zm-3.2-2h1.2v-1.6c0-2.3-.2-3.1-.2-3.2s-.1-.2-.3-.2c-.4 0-.5.1-.5.1 0 .1-.2.6-.2 3.3z" fill="#231815"/><path d="m128.1 40.2-.4 4.7c1.6-3.4 3.9-5.2 6.9-5.4v12.6c-2 0-3.5.3-4.4.8s-1.5 1.3-1.7 2.3-.3 3.2-.3 6.7v14.2h-10.9v-35.9z" fill="#fff"/><path d="m129.1 77.1h-12.9v-37.9h13l-.2 1.9c1.5-1.5 3.3-2.4 5.5-2.5l1.1-.1v14.7h-1c-2.3 0-3.4.4-3.9.7-.7.4-1.1.9-1.3 1.6-.1.6-.3 2.2-.3 6.5 0-.1 0 15.1 0 15.1zm-10.9-2h8.9v-13.2c0-3.6.1-5.8.3-6.9.3-1.2 1-2.2 2.2-2.9.9-.5 2.2-.8 3.9-.9v-10.5c-2.1.5-3.8 2-5 4.6l-2.4 5.2.8-9.3h-8.8z" fill="#231815"/><path d="m137.3 32.3h8.5c5.5 0 9.2.2 11.2.8s3.4 1.3 4.4 2.5 1.6 2.4 1.9 3.8.4 4.2.4 8.3v15.3c0 3.9-.2 6.6-.6 7.9s-1 2.4-1.9 3.1-2.1 1.3-3.4 1.6-3.4.4-6.1.4h-14.4zm11.4 7.5v28.8c1.6 0 2.6-.3 3-1s.6-2.4.6-5.4v-17c0-2-.1-3.2-.2-3.8s-.4-1-.9-1.2-1.2-.4-2.5-.4z" fill="#fff"/><path d="m151.7 77.1h-15.4v-45.8h9.5c5.6 0 9.4.3 11.4.8 2.1.5 3.8 1.5 4.9 2.8s1.8 2.8 2.1 4.3.4 4.3.4 8.5v15.3c0 4.1-.2 6.7-.6 8.2s-1.2 2.7-2.3 3.6c-1 .8-2.3 1.4-3.8 1.8-1.3.3-3.4.5-6.2.5zm-13.3-2h13.4c2.6 0 4.6-.1 5.9-.4 1.2-.3 2.2-.7 3-1.4.8-.6 1.3-1.5 1.6-2.6.3-1.2.5-3.8.5-7.6v-15.4c0-4.1-.1-6.8-.4-8.2-.2-1.2-.8-2.3-1.7-3.4-.9-1-2.2-1.7-3.9-2.2-1.9-.5-5.5-.7-10.9-.7h-7.5zm10.3-5.5h-1v-30.8h1c1.5 0 2.4.2 3 .5.7.4 1.1 1 1.3 1.9.1.4.2 1.3.2 4v17c0 4.1-.4 5.3-.7 5.9-.4 1-1.7 1.5-3.8 1.5zm1-28.8v26.7c.9-.1 1.1-.4 1.2-.4.1-.2.4-1.1.4-4.9v-17c0-2.5-.1-3.3-.2-3.6-.1-.4-.2-.5-.4-.6 0 0-.2-.1-1-.2z" fill="#231815"/><path d="m192.4 52.8v8.8c0 3.2-.2 5.6-.5 7.1s-1 2.9-2.1 4.2-2.4 2.3-4.1 2.9-3.6.9-5.8.9c-2.4 0-4.5-.3-6.1-.8-1.7-.5-3-1.3-3.9-2.4s-1.6-2.4-2-3.9-.6-3.8-.6-6.9v-9.2c0-3.3.4-5.9 1.1-7.8s2-3.4 3.9-4.5 4.3-1.7 7.2-1.7c2.4 0 4.6.4 6.3 1.1 1.8.7 3.1 1.7 4.1 2.8s1.6 2.4 2 3.6.5 3.2.5 5.8zm-11-2.7c0-1.8-.1-3-.3-3.5s-.6-.7-1.3-.7-1.1.2-1.3.7-.3 1.6-.3 3.5v16.2c0 1.7.1 2.8.3 3.3s.6.8 1.3.8 1.1-.2 1.3-.7.3-1.5.3-3z" fill="#fff"/><path d="m180 77.7c-2.5 0-4.7-.3-6.4-.8-1.9-.6-3.3-1.5-4.4-2.7-1-1.2-1.8-2.6-2.2-4.3-.4-1.6-.6-3.9-.6-7.1v-9.2c0-3.5.4-6.2 1.1-8.2.8-2.1 2.2-3.8 4.3-5 2-1.2 4.6-1.8 7.7-1.8 2.6 0 4.8.4 6.7 1.2s3.4 1.8 4.5 3.1c1 1.3 1.8 2.6 2.1 4 .4 1.3.6 3.3.6 6v8.8c0 3.3-.2 5.7-.5 7.3-.4 1.7-1.1 3.2-2.3 4.6s-2.7 2.5-4.5 3.2c-1.8.6-3.9.9-6.1.9zm-.5-37.2c-2.7 0-5 .5-6.7 1.6-1.7 1-2.8 2.3-3.5 4-.7 1.8-1 4.3-1 7.5v9.2c0 3 .2 5.2.6 6.6s.9 2.5 1.8 3.5c.8.9 2 1.6 3.5 2.1 1.6.5 3.5.8 5.8.8 2 0 3.9-.3 5.4-.9s2.7-1.4 3.7-2.6 1.6-2.5 1.9-3.8c.3-1.4.5-3.8.5-6.9v-8.8c0-2.4-.2-4.3-.5-5.4s-.9-2.2-1.8-3.3c-.9-1-2.1-1.9-3.7-2.6-1.7-.6-3.7-1-6-1zm.3 30.9c-1 0-1.8-.5-2.2-1.4-.2-.4-.4-1.3-.4-3.7v-16.2c0-2.6.2-3.5.4-3.9.2-.5.8-1.3 2.2-1.3s2 .8 2.2 1.3c.2.4.4 1.2.4 3.9v16.5c0 2.2-.2 3-.4 3.4-.2.6-.8 1.4-2.2 1.4zm.1-24.5c-.3 0-.4.1-.4.1 0 .1-.2.6-.2 3.1v16.2c0 2.2.2 2.8.2 2.9s.1.2.4.2.4-.1.4-.1c.1-.1.2-.7.2-2.6v-16.6c0-2.4-.2-3-.2-3.1-.1 0-.1-.1-.4-.1z" fill="#231815"/><path d="m207.5 40.2v28.4c0 3.3-.1 5.6-.2 6.8s-.6 2.2-1.2 3.1-1.6 1.6-2.8 2-2.9.7-5.2.7h-4.2v-5.7c1.3 0 2-.1 2.2-.4s.2-2.1.2-5.4v-29.5zm0-7.9v5.7h-11.2v-5.7z" fill="#fff"/><path d="m198.1 82.1h-5.2v-7.7h1c.7 0 1.1-.1 1.3-.1.1-.5.1-1.7.1-4.8v-30.3h13.2v29.4c0 3.4-.1 5.7-.2 6.9-.2 1.4-.6 2.6-1.4 3.6s-1.9 1.8-3.2 2.3-3.2.7-5.6.7zm-3.2-2h3.2c2.2 0 3.8-.2 4.9-.6 1-.4 1.8-.9 2.4-1.7s.9-1.6 1-2.6c.1-1.1.2-3.4.2-6.7v-27.3h-9.2v28.4c0 5.2-.2 5.6-.4 5.9-.3.6-1.1.8-2.1.9zm13.6-41.1h-13.2v-7.7h13.2zm-11.2-2h9.2v-3.7h-9.2z" fill="#231815"/><path d="m236.2 52.8v8.8c0 3.2-.2 5.6-.5 7.1s-1 2.9-2.1 4.2-2.4 2.3-4.1 2.9-3.6.9-5.8.9c-2.4 0-4.5-.3-6.1-.8-1.7-.5-3-1.3-3.9-2.4s-1.6-2.4-2-3.9-.6-3.8-.6-6.9v-9.2c0-3.3.4-5.9 1.1-7.8s2-3.4 3.9-4.5 4.3-1.7 7.2-1.7c2.4 0 4.6.4 6.3 1.1 1.8.7 3.1 1.7 4.1 2.8 1 1.2 1.6 2.4 2 3.6s.5 3.2.5 5.8zm-10.9-2.7c0-1.8-.1-3-.3-3.5s-.6-.7-1.3-.7-1.1.2-1.3.7-.3 1.6-.3 3.5v16.2c0 1.7.1 2.8.3 3.3s.6.8 1.3.8 1.1-.2 1.3-.7.3-1.5.3-3z" fill="#fff"/><path d="m223.8 77.7c-2.5 0-4.7-.3-6.4-.8-1.9-.6-3.3-1.5-4.4-2.7-1-1.2-1.8-2.6-2.2-4.3-.4-1.6-.6-3.9-.6-7.1v-9.2c0-3.5.4-6.2 1.1-8.2.8-2.1 2.2-3.8 4.3-5 2-1.2 4.6-1.8 7.7-1.8 2.6 0 4.8.4 6.7 1.2s3.4 1.8 4.5 3.2c1 1.3 1.8 2.6 2.1 4 .4 1.3.6 3.3.6 6v8.8c0 3.3-.2 5.7-.5 7.3-.4 1.7-1.1 3.2-2.3 4.6s-2.7 2.5-4.5 3.2c-1.8.5-3.8.8-6.1.8zm-.5-37.2c-2.7 0-5 .5-6.7 1.6-1.7 1-2.8 2.3-3.5 4-.7 1.8-1 4.3-1 7.5v9.2c0 3 .2 5.2.6 6.6s.9 2.5 1.8 3.5c.8.9 2 1.6 3.5 2.1 1.6.5 3.5.8 5.8.8 2 0 3.9-.3 5.4-.9s2.7-1.4 3.7-2.6 1.6-2.5 1.9-3.8c.3-1.4.5-3.8.5-6.9v-8.8c0-2.4-.2-4.3-.5-5.4s-.9-2.2-1.8-3.3c-.8-1-2.1-1.9-3.7-2.6-1.7-.6-3.7-1-6-1zm.4 30.9c-1 0-1.8-.5-2.2-1.4-.2-.4-.4-1.3-.4-3.7v-16.2c0-2.6.2-3.5.4-3.9.2-.5.8-1.3 2.2-1.3s2 .8 2.2 1.3c.2.4.4 1.2.4 3.9v16.5c0 2.2-.2 3-.4 3.4-.3.6-.8 1.4-2.2 1.4zm0-24.5c-.3 0-.4.1-.4.1 0 .1-.2.6-.2 3.1v16.2c0 2.2.2 2.8.2 2.9s.1.2.4.2.4-.1.4-.1c.1-.1.2-.7.2-2.6v-16.6c0-2.4-.2-3-.2-3.1-.1 0-.1-.1-.4-.1z" fill="#231815"/><path d="m255.6 50.3-.8 25.5h-10.1l.9-25.5h-2v-11.8h2.3l.1-1.3h10v1.3h21.5v11.8z" fill="#fff"/><path d="m255.7 76.8h-12.1l.8-25.5h-1.9v-13.8h2.4v-1.3h12.1v1.3h21.4v13.7h-21.9zm-9.9-2h8.1l.8-25.5h21.8v-9.7h-21.5v-1.3h-8.1v1.3h-2.3v9.7h2z" fill="#231815"/><path d="m266.1 75.9c-6.9 0-9.8-4.5-9.8-12.7 0-6.8 3.4-11.4 10.2-11.4h10.3v9.1h-8.7c-.5 0-.8.5-.8 1.2 0 .8.2 1.2.8 1.2h8.7v12.5h-10.7z" fill="#fff"/><path d="m277.8 76.9h-11.8c-7.2 0-10.8-4.6-10.8-13.7 0-7.8 4.2-12.4 11.2-12.4h11.3v11.1h-9.5v.2.2h9.5zm-11.3-24.1c-8 0-9.2 6.5-9.2 10.4 0 8 2.8 11.7 8.8 11.7h9.8v-10.5h-7.7c-.5 0-1.8-.2-1.8-2.3 0-1.5.9-2.2 1.8-2.2h7.7v-7.1c-.1 0-9.4 0-9.4 0z" fill="#231815"/><path d="m305.4 75.9h-21.8v-11.2h18.3c1 0 1.3-.5 1.3-1.3 0-1-.4-1.4-1.3-1.4h-16.6v-10.5h-4.2v-11.3h4.2v-2.3h10.9v2.3h18.3v11.3h-18.3v2.1h9.2c6.7 0 9.4 5.2 9.4 11.1-.1 6.6-3.3 11.2-9.4 11.2z" fill="#fff"/><path d="m305.4 76.9h-22.8v-13.2h19.3.3s0-.1 0-.2c0-.2 0-.3 0-.4 0 0-.1 0-.2 0h-17.6v-10.6h-4.2v-13.3h4.2v-2.3h12.9v2.3h18.3v13.3h-18.3v.1h8.2c6.4 0 10.4 4.7 10.4 12.1s-4.1 12.2-10.5 12.2zm-20.8-2h20.8c5.2 0 8.4-3.8 8.4-10.2 0-3.1-.8-10.1-8.4-10.1h-10.2v-4.1h18.3v-9.3h-18.3v-2.3h-8.9v2.3h-4.2v9.3h4.2v10.5h15.6c1.4 0 2.3.9 2.3 2.4s-.8 2.3-2.3 2.3h-17.3z" fill="#231815"/><path d="m344 67.9v-16.3c0-1.8-.5-2.8-1.4-2.8h-.3c.5 2 .7 4.5.7 7.5v10c0 5.7-1.8 9.5-7.4 9.5h-4.6v-12.1h1.3c.8 0 1.2-.3 1.2-1.5v-5.8c0-1-.4-1.2-1.1-1.2h-1.9l-1.1 20.7h-9.8l1.1-20.7h-2.5v-12.7h3.2l.3-4.8h9.8l-.3 4.8h1c4.6 0 7.3 1.2 8.8 3.6v-7.6h1.9c6.5 0 9.5 4.8 9.5 11.6v17.9c.1-.1-8.4-.1-8.4-.1z" fill="#fff"/><path d="m335.6 76.8h-17l1.1-20.7h-2.4v-14.6h3.2l.3-4.8h11.8l-.3 4.8c3.4 0 5.9.7 7.7 2v-6.1h2.9c6.6 0 10.5 4.7 10.5 12.6v18.9h-9.6c-.3 3.3-1.8 7.9-8.2 7.9zm-3.6-2h3.6c4.5 0 6.4-2.5 6.4-8.5v-10c0-3.2-.2-5.5-.7-7.2l-.3-1.3-.8-1.2c-1.4-2.1-3.9-3.1-8-3.1h-2l.3-4.8h-7.8l-.3 4.8h-3.1v10.6h2.5l-1.1 20.7h7.8l1.1-20.7h2.8c1.3 0 2.1.8 2.1 2.2v5.8c0 2.1-1.2 2.6-2.2 2.6h-.3zm13-7.9h6.5v-16.9c0-3.9-1.1-10.6-8.5-10.6h-.9v8.4h.5c.9 0 2.4.5 2.4 3.8zm-13.8-4.2h1.1.2s0-.2 0-.5v-5.8c0-.1 0-.2 0-.2h-.9z" fill="#231815"/><path d="m378 75.8h-4.2v-12.1h3.2c1 0 1.8-.4 1.8-1.9v-7.3c0-1-.3-1.9-1.3-1.9-.9 0-1.6.5-4.3 3.3l-5.1 5.2v14.7h-10v-5.7h-2.6v-12.4h2.6v-4.2h-2.6v-12h2.6v-4.1h10v7.9l2.2-2c3.3-3 5.5-4.4 8.8-4.4 7.5 0 9.7 6.4 9.7 12.5v12.2c.1 8.4-3.2 12.2-10.8 12.2z" fill="#fff"/><path d="m378 76.8h-5.2v-14.1h4.2c.6 0 .8-.1.8-.9v-7.3s0-.9-.3-.9c-.5 0-1 .4-3.6 3l-4.8 5v15.3h-12v-5.7h-2.6v-14.5h2.6v-2.2h-2.6v-14h2.6v-4.1h12v6.6l.5-.5c3.4-3.1 5.8-4.7 9.5-4.7 6.8 0 10.7 4.9 10.7 13.5v12.2c.1 9.1-3.7 13.3-11.8 13.3zm-3.1-2h3.2c7 0 9.9-3.2 9.9-11.2v-12.2c0-4.3-1.1-11.5-8.7-11.5-3 0-5 1.3-8.1 4.2l-3.9 3.6v-9.1h-8v4.1h-2.6v10h2.6v6.2h-2.6v10.4h2.6v5.7h8v-14.4l5.4-5.5c2.9-2.9 3.7-3.6 5-3.6 1.1 0 2.3.8 2.3 2.9v7.3c0 1.9-1 2.9-2.8 2.9h-2.2v10.2z" fill="#231815"/><g fill="#fff"><path d="m32.2 88.5v-1.5c0-.1.1-.2.2-.2h5.4v-3.6h-5.3c-.1 0-.2-.1-.2-.2v-1.4c0-.1.1-.2.2-.2h7.1c.1 0 .2.1.2.2v6.9c0 .1-.1.2-.2.2h-7.2c-.2 0-.2-.1-.2-.2z"/><path d="m44.6 85.7v-1.7c0-.1.1-.2.2-.2h7.7c.1 0 .2.1.2.2v1.7c0 .1-.1.2-.2.2h-7.7c-.1 0-.2 0-.2-.2z"/><path d="m58.9 89.1-1.1-1.4v-.1c0-.1 0-.1.2-.1 1.3-.2 2.5-.7 3.4-1.5-.7-.4-1.4-.8-2.1-1.1-.2.2-.5.4-.8.6h-.1s-.1 0-.2-.1l-1.1-.9s-.1-.1-.1-.1 0-.1.1-.1c1.3-.8 2.2-2.2 2.5-3.1 0-.1.1-.2.2-.2h2.7c.1 0 .2 0 .2.1l.7.4c-.2-.3-.3-.5-.5-.7v-.1c0-.1 0-.1.1-.1l.5-.2c.1 0 .2 0 .3.1.4.4.8 1.1 1 1.6.1.1 0 .2-.1.2h-.1l.4.3c.1.1.1.1.1.3-.7 3.5-2.8 5.6-6 6.5-.1-.1-.2-.2-.2-.3zm1.3-5.5c.7.3 1.5.6 2.2 1 .3-.6.6-1.3.7-2h-2.4c-.1.3-.3.6-.5 1zm5.1-1.5c-.1 0-.1 0-.2-.1-.2-.5-.5-1.1-.8-1.5 0 0-.1-.1-.1-.1 0-.1 0-.1.1-.1l.5-.2c.1 0 .2 0 .2.1.3.4.7 1 .9 1.5 0 .1 0 .2-.1.2l-.5.2c.1 0 .1 0 0 0z"/><path d="m69.8 85.7v-1.7c0-.1.1-.2.2-.2h7.7c.1 0 .2.1.2.2v1.7c0 .1-.1.2-.2.2h-7.7c-.1 0-.2 0-.2-.2z"/><path d="m82 83.7h2.3c.1 0 .2.1.2.2v2.9c.3.7.7.9 1.9 1h.9c1 0 2.5-.1 3.8-.2.1 0 .2.1.2.2l-.5 1.5c0 .1-.1.1-.2.1-.7.1-1.9.1-3 .1-.5 0-1 0-1.3 0-1.2-.1-2-.3-2.6-.9-.2.2-.9 1-1.1 1-.1 0-.1 0-.1-.1l-.9-1.3c-.1-.1 0-.2.1-.2.3-.2.8-.5 1.1-.7v-1.8h-.8c-.1 0-.2-.1-.2-.2v-1.4c.1-.1.1-.2.2-.2zm3.3-3.1c0-.2 0-.2.1-.2l1.4-.2c.1 0 .1 0 .2.1.2.2.3.5.4.8h.7c.2-.2.3-.5.4-.7 0-.1.1-.1.2-.1l1.4.2c.1 0 .2.1.1.2s-.2.3-.3.4h.9c.1 0 .2.1.2.2v1c0 .1-.1.2-.2.2h-2.4c0 .1-.1.2-.1.3h2.1c.1 0 .2.1.2.2v4.3c0 .1-.1.2-.2.2h-5.4c-.1 0-.2-.1-.2-.2v-4.3c0-.1.1-.2.2-.2h1.4c.1-.1.1-.2.1-.3h-1.9c-.1 0-.2 0-.2-.1l-1.2.8h-.1c-.1 0-.1 0-.1-.1-.3-.6-.7-1.2-1.2-1.6 0 0-.1-.1-.1-.1s0-.1.1-.1l1.1-.8h.1s.1 0 .1.1c.5.4 1 1 1.3 1.6v-.8c0-.1.1-.2.2-.2h.8c.1-.3 0-.4-.1-.6zm3.5 3.5v-.3h-2.2v.3zm-2.1.7v.4h2.2v-.4zm0 1.1v.4h2.2v-.4z"/><path d="m101.2 89.4-.3-.9c-.4.4-.8.8-1.3 1.1-.1 0-.2 0-.2 0l-.8-.7s-.1-.1-.1-.1 0-.1.1-.1c.9-.4 1.6-1 1.9-1.7h-.3c-.5.8-1.2 1.4-2.1 1.7-.1 0-.2 0-.2-.1l-.6-.7v-.1c0-.1 0-.1.1-.1.7-.2 1.2-.4 1.5-.7h-.4c-.2.1-.3.2-.5.3-.1 0-.2 0-.2-.1l-.3-.5v.7c0 .1 0 .1-.1.2-.7.4-1.7.8-2.7 1.1-.1 0-.2 0-.2-.1l-.2-1.6c0-.1 0-.2.1-.2.3-.1.6-.1.9-.2v-2.4h-.6c-.1 0-.2-.1-.2-.2v-1.4c0-.1.1-.2.2-.2h.6v-1.9c0-.1.1-.2.2-.2h1.4c.1 0 .2.1.2.2v1.9h.5c.1 0 .2.1.2.2v1.4c0 .1-.1.2-.2.2h-.6v1.8l.3-.2c.1-.1.2 0 .2.1v.1c.4-.1.8-.3 1-.6h-.7c-.1 0-.2-.1-.2-.2v-.9c0-.1.1-.2.2-.2h5.8c.1 0 .2.1.2.2v.9c0 .1-.1.2-.2.2h-3.5l-.2.3h3.5c.1 0 .2.1.2.2v1.8c-.1 1.7-.6 2-2.2 1.9-.1 0-.1-.1-.2-.2zm-3.2-5.7v-3.1c0-.1.1-.2.2-.2h5c.1 0 .2.1.2.2v3.1c0 .1-.1.2-.2.2h-5c-.2-.1-.2-.1-.2-.2zm3.6-1.9v-.4h-2v.4zm-1.9.7v.4h2v-.4zm1.6 5.6c.6 0 .7-.1.7-.5 0-.2 0-.5 0-.7h-.1c-.2.4-.4.8-.6 1.2z"/></g></svg>